<svg width="774" height="131" viewBox="0 0 774 131" fill="none" xmlns="http://www.w3.org/2000/svg">
<rect width="774" height="131" fill="#E94C42"/>
<path d="M613.5 76.5C579.268 81.8362 543.5 131 543.5 131H774V0H751.5C751.5 0 738.079 92.6188 693 103C661.109 110.344 645.836 71.4594 613.5 76.5Z" fill="white" fill-opacity="0.25"/>
<path d="M52.85 79.2C52.85 81.2333 52.3833 83.1 51.45 84.8C50.5167 86.4667 49.0833 87.8167 47.15 88.85C45.2167 89.8833 42.8167 90.4 39.95 90.4H34.65V103H26.1V67.9H39.95C42.75 67.9 45.1167 68.3833 47.05 69.35C48.9833 70.3167 50.4333 71.65 51.4 73.35C52.3667 75.05 52.85 77 52.85 79.2ZM39.3 83.6C40.9333 83.6 42.15 83.2167 42.95 82.45C43.75 81.6833 44.15 80.6 44.15 79.2C44.15 77.8 43.75 76.7167 42.95 75.95C42.15 75.1833 40.9333 74.8 39.3 74.8H34.65V83.6H39.3ZM55.6012 89C55.6012 86.1333 56.1345 83.6167 57.2012 81.45C58.3012 79.2833 59.7845 77.6167 61.6512 76.45C63.5178 75.2833 65.6012 74.7 67.9012 74.7C69.8678 74.7 71.5845 75.1 73.0512 75.9C74.5512 76.7 75.7012 77.75 76.5012 79.05V75.1H85.0512V103H76.5012V99.05C75.6678 100.35 74.5012 101.4 73.0012 102.2C71.5345 103 69.8178 103.4 67.8512 103.4C65.5845 103.4 63.5178 102.817 61.6512 101.65C59.7845 100.45 58.3012 98.7667 57.2012 96.6C56.1345 94.4 55.6012 91.8667 55.6012 89ZM76.5012 89.05C76.5012 86.9167 75.9012 85.2333 74.7012 84C73.5345 82.7667 72.1012 82.15 70.4012 82.15C68.7012 82.15 67.2512 82.7667 66.0512 84C64.8845 85.2 64.3012 86.8667 64.3012 89C64.3012 91.1333 64.8845 92.8333 66.0512 94.1C67.2512 95.3333 68.7012 95.95 70.4012 95.95C72.1012 95.95 73.5345 95.3333 74.7012 94.1C75.9012 92.8667 76.5012 91.1833 76.5012 89.05ZM108.237 74.8C111.503 74.8 114.103 75.8667 116.037 78C118.003 80.1 118.987 83 118.987 86.7V103H110.487V87.85C110.487 85.9833 110.003 84.5333 109.037 83.5C108.07 82.4667 106.77 81.95 105.137 81.95C103.503 81.95 102.203 82.4667 101.237 83.5C100.27 84.5333 99.7867 85.9833 99.7867 87.85V103H91.2367V75.1H99.7867V78.8C100.653 77.5667 101.82 76.6 103.287 75.9C104.753 75.1667 106.403 74.8 108.237 74.8ZM123.228 89C123.228 86.1333 123.761 83.6167 124.828 81.45C125.928 79.2833 127.411 77.6167 129.278 76.45C131.145 75.2833 133.228 74.7 135.528 74.7C137.361 74.7 139.028 75.0833 140.528 75.85C142.061 76.6167 143.261 77.65 144.128 78.95V66H152.678V103H144.128V99C143.328 100.333 142.178 101.4 140.678 102.2C139.211 103 137.495 103.4 135.528 103.4C133.228 103.4 131.145 102.817 129.278 101.65C127.411 100.45 125.928 98.7667 124.828 96.6C123.761 94.4 123.228 91.8667 123.228 89ZM144.128 89.05C144.128 86.9167 143.528 85.2333 142.328 84C141.161 82.7667 139.728 82.15 138.028 82.15C136.328 82.15 134.878 82.7667 133.678 84C132.511 85.2 131.928 86.8667 131.928 89C131.928 91.1333 132.511 92.8333 133.678 94.1C134.878 95.3333 136.328 95.95 138.028 95.95C139.728 95.95 141.161 95.3333 142.328 94.1C143.528 92.8667 144.128 91.1833 144.128 89.05ZM163.164 72.2C161.664 72.2 160.43 71.7667 159.464 70.9C158.53 70 158.064 68.9 158.064 67.6C158.064 66.2667 158.53 65.1667 159.464 64.3C160.43 63.4 161.664 62.95 163.164 62.95C164.63 62.95 165.83 63.4 166.764 64.3C167.73 65.1667 168.214 66.2667 168.214 67.6C168.214 68.9 167.73 70 166.764 70.9C165.83 71.7667 164.63 72.2 163.164 72.2ZM167.414 75.1V103H158.864V75.1H167.414ZM199.91 88.6C199.91 89.4 199.86 90.2333 199.76 91.1H180.41C180.543 92.8333 181.093 94.1667 182.06 95.1C183.06 96 184.276 96.45 185.71 96.45C187.843 96.45 189.326 95.55 190.16 93.75H199.26C198.793 95.5833 197.943 97.2333 196.71 98.7C195.51 100.167 193.993 101.317 192.16 102.15C190.326 102.983 188.276 103.4 186.01 103.4C183.276 103.4 180.843 102.817 178.71 101.65C176.576 100.483 174.91 98.8167 173.71 96.65C172.51 94.4833 171.91 91.95 171.91 89.05C171.91 86.15 172.493 83.6167 173.66 81.45C174.86 79.2833 176.526 77.6167 178.66 76.45C180.793 75.2833 183.243 74.7 186.01 74.7C188.71 74.7 191.11 75.2667 193.21 76.4C195.31 77.5333 196.943 79.15 198.11 81.25C199.31 83.35 199.91 85.8 199.91 88.6ZM191.16 86.35C191.16 84.8833 190.66 83.7167 189.66 82.85C188.66 81.9833 187.41 81.55 185.91 81.55C184.476 81.55 183.26 81.9667 182.26 82.8C181.293 83.6333 180.693 84.8167 180.46 86.35H191.16ZM212.97 79.75C213.97 78.2167 215.22 77.0167 216.72 76.15C218.22 75.25 219.887 74.8 221.72 74.8V83.85H219.37C217.237 83.85 215.637 84.3167 214.57 85.25C213.504 86.15 212.97 87.75 212.97 90.05V103H204.42V75.1H212.97V79.75Z" fill="white"/>
<path d="M49.8 23.92V52H42.96V40.44H32.32V52H25.48V23.92H32.32V34.92H42.96V23.92H49.8ZM75.7778 40.48C75.7778 41.12 75.7378 41.7867 75.6578 42.48H60.1778C60.2845 43.8667 60.7245 44.9333 61.4978 45.68C62.2978 46.4 63.2711 46.76 64.4178 46.76C66.1245 46.76 67.3111 46.04 67.9778 44.6H75.2578C74.8845 46.0667 74.2045 47.3867 73.2178 48.56C72.2578 49.7333 71.0445 50.6533 69.5778 51.32C68.1111 51.9867 66.4711 52.32 64.6578 52.32C62.4711 52.32 60.5245 51.8533 58.8178 50.92C57.1111 49.9867 55.7778 48.6533 54.8178 46.92C53.8578 45.1867 53.3778 43.16 53.3778 40.84C53.3778 38.52 53.8445 36.4933 54.7778 34.76C55.7378 33.0267 57.0711 31.6933 58.7778 30.76C60.4845 29.8267 62.4445 29.36 64.6578 29.36C66.8178 29.36 68.7378 29.8133 70.4178 30.72C72.0978 31.6267 73.4045 32.92 74.3378 34.6C75.2978 36.28 75.7778 38.24 75.7778 40.48ZM68.7778 38.68C68.7778 37.5067 68.3778 36.5733 67.5778 35.88C66.7778 35.1867 65.7778 34.84 64.5778 34.84C63.4311 34.84 62.4578 35.1733 61.6578 35.84C60.8845 36.5067 60.4045 37.4533 60.2178 38.68H68.7778ZM102.186 29.68L88.1863 62.6H80.8263L85.9463 51.24L76.8662 29.68H84.5063L89.6663 43.64L94.7863 29.68H102.186ZM112.02 45.68L107.58 57.16H103.22L105.54 45.68H112.02ZM131.461 23.92V52H124.621V23.92H131.461ZM137.978 23.92H144.978L140.498 34.64H135.898L137.978 23.92ZM177.476 29.44C180.249 29.44 182.449 30.28 184.076 31.96C185.729 33.64 186.556 35.9733 186.556 38.96V52H179.756V39.88C179.756 38.44 179.369 37.3333 178.596 36.56C177.849 35.76 176.809 35.36 175.476 35.36C174.142 35.36 173.089 35.76 172.316 36.56C171.569 37.3333 171.196 38.44 171.196 39.88V52H164.396V39.88C164.396 38.44 164.009 37.3333 163.236 36.56C162.489 35.76 161.449 35.36 160.116 35.36C158.782 35.36 157.729 35.76 156.956 36.56C156.209 37.3333 155.836 38.44 155.836 39.88V52H148.996V29.68H155.836V32.48C156.529 31.5467 157.436 30.8133 158.556 30.28C159.676 29.72 160.942 29.44 162.356 29.44C164.036 29.44 165.529 29.8 166.836 30.52C168.169 31.24 169.209 32.2667 169.956 33.6C170.729 32.3733 171.782 31.3733 173.116 30.6C174.449 29.8267 175.902 29.44 177.476 29.44Z" fill="white" fill-opacity="0.5"/>
<rect x="544" y="40" width="203" height="51" rx="12" fill="white"/>
<path d="M572.072 54.536C574.44 54.536 576.509 55.0053 578.28 55.944C580.051 56.8827 581.416 58.2053 582.376 59.912C583.357 61.5973 583.848 63.5493 583.848 65.768C583.848 67.9653 583.357 69.9173 582.376 71.624C581.416 73.3307 580.04 74.6533 578.248 75.592C576.477 76.5307 574.419 77 572.072 77H563.656V54.536H572.072ZM571.72 72.264C573.789 72.264 575.4 71.6987 576.552 70.568C577.704 69.4373 578.28 67.8373 578.28 65.768C578.28 63.6987 577.704 62.088 576.552 60.936C575.4 59.784 573.789 59.208 571.72 59.208H569.128V72.264H571.72ZM603.738 67.784C603.738 68.296 603.706 68.8293 603.642 69.384H591.258C591.343 70.4933 591.695 71.3467 592.314 71.944C592.954 72.52 593.733 72.808 594.65 72.808C596.015 72.808 596.965 72.232 597.498 71.08H603.322C603.023 72.2533 602.479 73.3093 601.69 74.248C600.922 75.1867 599.951 75.9227 598.778 76.456C597.605 76.9893 596.293 77.256 594.842 77.256C593.093 77.256 591.535 76.8827 590.17 76.136C588.805 75.3893 587.738 74.3227 586.97 72.936C586.202 71.5493 585.818 69.928 585.818 68.072C585.818 66.216 586.191 64.5947 586.938 63.208C587.706 61.8213 588.773 60.7547 590.138 60.008C591.503 59.2613 593.071 58.888 594.842 58.888C596.57 58.888 598.106 59.2507 599.45 59.976C600.794 60.7013 601.839 61.736 602.586 63.08C603.354 64.424 603.738 65.992 603.738 67.784ZM598.138 66.344C598.138 65.4053 597.818 64.6587 597.178 64.104C596.538 63.5493 595.738 63.272 594.778 63.272C593.861 63.272 593.082 63.5387 592.442 64.072C591.823 64.6053 591.439 65.3627 591.29 66.344H598.138ZM614.657 71.88L618.529 59.144H624.353L618.017 77H611.265L604.929 59.144H610.785L614.657 71.88ZM643.488 67.784C643.488 68.296 643.456 68.8293 643.392 69.384H631.008C631.093 70.4933 631.445 71.3467 632.064 71.944C632.704 72.52 633.483 72.808 634.4 72.808C635.765 72.808 636.715 72.232 637.248 71.08H643.072C642.773 72.2533 642.229 73.3093 641.44 74.248C640.672 75.1867 639.701 75.9227 638.528 76.456C637.355 76.9893 636.043 77.256 634.592 77.256C632.843 77.256 631.285 76.8827 629.92 76.136C628.555 75.3893 627.488 74.3227 626.72 72.936C625.952 71.5493 625.568 69.928 625.568 68.072C625.568 66.216 625.941 64.5947 626.688 63.208C627.456 61.8213 628.523 60.7547 629.888 60.008C631.253 59.2613 632.821 58.888 634.592 58.888C636.32 58.888 637.856 59.2507 639.2 59.976C640.544 60.7013 641.589 61.736 642.336 63.08C643.104 64.424 643.488 65.992 643.488 67.784ZM637.888 66.344C637.888 65.4053 637.568 64.6587 636.928 64.104C636.288 63.5493 635.488 63.272 634.528 63.272C633.611 63.272 632.832 63.5387 632.192 64.072C631.573 64.6053 631.189 65.3627 631.04 66.344H637.888ZM651.847 53.32V77H646.375V53.32H651.847ZM663.94 77.256C662.191 77.256 660.612 76.8827 659.204 76.136C657.817 75.3893 656.719 74.3227 655.908 72.936C655.119 71.5493 654.724 69.928 654.724 68.072C654.724 66.2373 655.129 64.6267 655.94 63.24C656.751 61.832 657.86 60.7547 659.268 60.008C660.676 59.2613 662.255 58.888 664.004 58.888C665.753 58.888 667.332 59.2613 668.74 60.008C670.148 60.7547 671.257 61.832 672.068 63.24C672.879 64.6267 673.284 66.2373 673.284 68.072C673.284 69.9067 672.868 71.528 672.036 72.936C671.225 74.3227 670.105 75.3893 668.676 76.136C667.268 76.8827 665.689 77.256 663.94 77.256ZM663.94 72.52C664.985 72.52 665.871 72.136 666.596 71.368C667.343 70.6 667.716 69.5013 667.716 68.072C667.716 66.6427 667.353 65.544 666.628 64.776C665.924 64.008 665.049 63.624 664.004 63.624C662.937 63.624 662.052 64.008 661.348 64.776C660.644 65.5227 660.292 66.6213 660.292 68.072C660.292 69.5013 660.633 70.6 661.316 71.368C662.02 72.136 662.895 72.52 663.94 72.52ZM681.659 61.672C682.192 60.84 682.928 60.168 683.867 59.656C684.806 59.144 685.904 58.888 687.163 58.888C688.635 58.888 689.968 59.2613 691.163 60.008C692.358 60.7547 693.296 61.8213 693.979 63.208C694.683 64.5947 695.035 66.2053 695.035 68.04C695.035 69.8747 694.683 71.496 693.979 72.904C693.296 74.2907 692.358 75.368 691.163 76.136C689.968 76.8827 688.635 77.256 687.163 77.256C685.926 77.256 684.827 77 683.867 76.488C682.928 75.976 682.192 75.3147 681.659 74.504V85.512H676.187V59.144H681.659V61.672ZM689.467 68.04C689.467 66.6747 689.083 65.608 688.315 64.84C687.568 64.0507 686.64 63.656 685.531 63.656C684.443 63.656 683.515 64.0507 682.747 64.84C682 65.6293 681.627 66.7067 681.627 68.072C681.627 69.4373 682 70.5147 682.747 71.304C683.515 72.0933 684.443 72.488 685.531 72.488C686.619 72.488 687.547 72.0933 688.315 71.304C689.083 70.4933 689.467 69.4053 689.467 68.04ZM714.738 67.784C714.738 68.296 714.706 68.8293 714.642 69.384H702.258C702.343 70.4933 702.695 71.3467 703.314 71.944C703.954 72.52 704.733 72.808 705.65 72.808C707.015 72.808 707.965 72.232 708.498 71.08H714.322C714.023 72.2533 713.479 73.3093 712.69 74.248C711.922 75.1867 710.951 75.9227 709.778 76.456C708.605 76.9893 707.293 77.256 705.842 77.256C704.093 77.256 702.535 76.8827 701.17 76.136C699.805 75.3893 698.738 74.3227 697.97 72.936C697.202 71.5493 696.818 69.928 696.818 68.072C696.818 66.216 697.191 64.5947 697.938 63.208C698.706 61.8213 699.773 60.7547 701.138 60.008C702.503 59.2613 704.071 58.888 705.842 58.888C707.57 58.888 709.106 59.2507 710.45 59.976C711.794 60.7013 712.839 61.736 713.586 63.08C714.354 64.424 714.738 65.992 714.738 67.784ZM709.138 66.344C709.138 65.4053 708.818 64.6587 708.178 64.104C707.538 63.5493 706.738 63.272 705.778 63.272C704.861 63.272 704.082 63.5387 703.442 64.072C702.823 64.6053 702.439 65.3627 702.29 66.344H709.138ZM723.097 62.12C723.737 61.1387 724.537 60.3707 725.497 59.816C726.457 59.24 727.523 58.952 728.697 58.952V64.744H727.193C725.827 64.744 724.803 65.0427 724.121 65.64C723.438 66.216 723.097 67.24 723.097 68.712V77H717.625V59.144H723.097V62.12Z" fill="#E94C42"/>
</svg>
