<svg width="774" height="131" viewBox="0 0 774 131" fill="none" xmlns="http://www.w3.org/2000/svg">
<rect width="774" height="131" fill="#E94C42"/>
<path d="M613.5 76.5L543.5 131H774V0H751.5L693 103L613.5 76.5Z" fill="white" fill-opacity="0.5"/>
<path d="M41.0166 92.3291H31.959V86.6162H41.0166C42.4163 86.6162 43.5557 86.3883 44.4346 85.9326C45.3135 85.4606 45.9564 84.8096 46.3633 83.9795C46.7702 83.1494 46.9736 82.2135 46.9736 81.1719C46.9736 80.1139 46.7702 79.1292 46.3633 78.2178C45.9564 77.3063 45.3135 76.5739 44.4346 76.0205C43.5557 75.4671 42.4163 75.1904 41.0166 75.1904H34.498V105H27.1738V69.4531H41.0166C43.7998 69.4531 46.1842 69.9577 48.1699 70.9668C50.1719 71.9596 51.7018 73.335 52.7598 75.0928C53.8177 76.8506 54.3467 78.8607 54.3467 81.123C54.3467 83.418 53.8177 85.4036 52.7598 87.0801C51.7018 88.7565 50.1719 90.0505 48.1699 90.9619C46.1842 91.8734 43.7998 92.3291 41.0166 92.3291ZM72.9258 99.043V87.2754C72.9258 86.429 72.7874 85.7048 72.5107 85.1025C72.234 84.484 71.8027 84.0039 71.2168 83.6621C70.6471 83.3203 69.9066 83.1494 68.9951 83.1494C68.2139 83.1494 67.5384 83.2878 66.9688 83.5645C66.3991 83.8249 65.9596 84.2074 65.6504 84.7119C65.3411 85.2002 65.1865 85.778 65.1865 86.4453H58.1553C58.1553 85.3223 58.4157 84.2562 58.9365 83.2471C59.4574 82.238 60.2142 81.3509 61.207 80.5859C62.1999 79.8047 63.3799 79.1943 64.7471 78.7549C66.1305 78.3154 67.6768 78.0957 69.3857 78.0957C71.4365 78.0957 73.2594 78.4375 74.8545 79.1211C76.4495 79.8047 77.7028 80.8301 78.6143 82.1973C79.542 83.5645 80.0059 85.2734 80.0059 87.3242V98.6279C80.0059 100.076 80.0954 101.265 80.2744 102.192C80.4535 103.104 80.7139 103.901 81.0557 104.585V105H73.9512C73.6094 104.284 73.349 103.389 73.1699 102.314C73.0072 101.224 72.9258 100.133 72.9258 99.043ZM73.8535 88.9111L73.9023 92.8906H69.9717C69.0439 92.8906 68.2383 92.9964 67.5547 93.208C66.8711 93.4196 66.3096 93.7207 65.8701 94.1113C65.4307 94.4857 65.1051 94.9251 64.8936 95.4297C64.6982 95.9342 64.6006 96.4876 64.6006 97.0898C64.6006 97.6921 64.7389 98.2373 65.0156 98.7256C65.2923 99.1976 65.6911 99.5719 66.2119 99.8486C66.7327 100.109 67.3431 100.239 68.043 100.239C69.1009 100.239 70.0205 100.028 70.8018 99.6045C71.583 99.1813 72.1852 98.6605 72.6084 98.042C73.0479 97.4235 73.2757 96.8376 73.292 96.2842L75.1475 99.2627C74.887 99.93 74.529 100.622 74.0732 101.338C73.6338 102.054 73.0723 102.729 72.3887 103.364C71.7051 103.983 70.8831 104.495 69.9229 104.902C68.9626 105.293 67.8232 105.488 66.5049 105.488C64.8285 105.488 63.3066 105.155 61.9395 104.487C60.5885 103.804 59.5143 102.868 58.7168 101.68C57.9355 100.475 57.5449 99.1081 57.5449 97.5781C57.5449 96.1947 57.8053 94.9658 58.3262 93.8916C58.847 92.8174 59.612 91.9141 60.6211 91.1816C61.6465 90.4329 62.9242 89.8714 64.4541 89.4971C65.984 89.1064 67.7581 88.9111 69.7764 88.9111H73.8535ZM92.3105 84.2236V105H85.2793V78.584H91.8711L92.3105 84.2236ZM91.2852 90.8643H89.3809C89.3809 88.9111 89.6331 87.1533 90.1377 85.5908C90.6423 84.012 91.3503 82.6693 92.2617 81.5625C93.1732 80.4395 94.2555 79.585 95.5088 78.999C96.7783 78.3968 98.1943 78.0957 99.7568 78.0957C100.994 78.0957 102.125 78.2747 103.15 78.6328C104.176 78.9909 105.055 79.5605 105.787 80.3418C106.536 81.123 107.105 82.1566 107.496 83.4424C107.903 84.7282 108.106 86.2988 108.106 88.1543V105H101.026V88.1299C101.026 86.958 100.864 86.0465 100.538 85.3955C100.213 84.7445 99.7324 84.2887 99.0977 84.0283C98.4792 83.7516 97.7142 83.6133 96.8027 83.6133C95.8587 83.6133 95.0368 83.8005 94.3369 84.1748C93.6533 84.5492 93.0837 85.07 92.6279 85.7373C92.1885 86.3883 91.8548 87.1533 91.627 88.0322C91.3991 88.9111 91.2852 89.8551 91.2852 90.8643ZM129.054 99.2383V67.5H136.134V105H129.762L129.054 99.2383ZM112.354 92.1094V91.5967C112.354 89.5785 112.582 87.7474 113.038 86.1035C113.494 84.4434 114.161 83.0192 115.04 81.8311C115.919 80.6429 117.001 79.7233 118.287 79.0723C119.573 78.4212 121.038 78.0957 122.682 78.0957C124.228 78.0957 125.579 78.4212 126.734 79.0723C127.906 79.7233 128.899 80.651 129.713 81.8555C130.543 83.0436 131.21 84.4515 131.715 86.0791C132.219 87.6904 132.586 89.4564 132.813 91.377V92.5C132.586 94.3392 132.219 96.0482 131.715 97.627C131.21 99.2057 130.543 100.589 129.713 101.777C128.899 102.949 127.906 103.861 126.734 104.512C125.562 105.163 124.195 105.488 122.633 105.488C120.989 105.488 119.524 105.155 118.238 104.487C116.969 103.82 115.895 102.884 115.016 101.68C114.153 100.475 113.494 99.0592 113.038 97.4316C112.582 95.804 112.354 94.0299 112.354 92.1094ZM119.386 91.5967V92.1094C119.386 93.1999 119.467 94.2171 119.63 95.1611C119.809 96.1051 120.094 96.9434 120.484 97.6758C120.891 98.3919 121.412 98.9535 122.047 99.3604C122.698 99.751 123.487 99.9463 124.415 99.9463C125.619 99.9463 126.612 99.6777 127.394 99.1406C128.175 98.5872 128.769 97.8304 129.176 96.8701C129.599 95.9098 129.843 94.8031 129.908 93.5498V90.3516C129.859 89.3262 129.713 88.4066 129.469 87.5928C129.241 86.7627 128.899 86.0547 128.443 85.4688C128.004 84.8828 127.451 84.4271 126.783 84.1016C126.132 83.776 125.359 83.6133 124.464 83.6133C123.552 83.6133 122.771 83.8249 122.12 84.248C121.469 84.6549 120.94 85.2165 120.533 85.9326C120.143 86.6488 119.85 87.4951 119.654 88.4717C119.475 89.432 119.386 90.4736 119.386 91.5967ZM155.885 99.043V87.2754C155.885 86.429 155.746 85.7048 155.47 85.1025C155.193 84.484 154.762 84.0039 154.176 83.6621C153.606 83.3203 152.866 83.1494 151.954 83.1494C151.173 83.1494 150.497 83.2878 149.928 83.5645C149.358 83.8249 148.919 84.2074 148.609 84.7119C148.3 85.2002 148.146 85.778 148.146 86.4453H141.114C141.114 85.3223 141.375 84.2562 141.896 83.2471C142.416 82.238 143.173 81.3509 144.166 80.5859C145.159 79.8047 146.339 79.1943 147.706 78.7549C149.09 78.3154 150.636 78.0957 152.345 78.0957C154.396 78.0957 156.218 78.4375 157.813 79.1211C159.409 79.8047 160.662 80.8301 161.573 82.1973C162.501 83.5645 162.965 85.2734 162.965 87.3242V98.6279C162.965 100.076 163.054 101.265 163.233 102.192C163.412 103.104 163.673 103.901 164.015 104.585V105H156.91C156.568 104.284 156.308 103.389 156.129 102.314C155.966 101.224 155.885 100.133 155.885 99.043ZM156.812 88.9111L156.861 92.8906H152.931C152.003 92.8906 151.197 92.9964 150.514 93.208C149.83 93.4196 149.269 93.7207 148.829 94.1113C148.39 94.4857 148.064 94.9251 147.853 95.4297C147.657 95.9342 147.56 96.4876 147.56 97.0898C147.56 97.6921 147.698 98.2373 147.975 98.7256C148.251 99.1976 148.65 99.5719 149.171 99.8486C149.692 100.109 150.302 100.239 151.002 100.239C152.06 100.239 152.979 100.028 153.761 99.6045C154.542 99.1813 155.144 98.6605 155.567 98.042C156.007 97.4235 156.235 96.8376 156.251 96.2842L158.106 99.2627C157.846 99.93 157.488 100.622 157.032 101.338C156.593 102.054 156.031 102.729 155.348 103.364C154.664 103.983 153.842 104.495 152.882 104.902C151.922 105.293 150.782 105.488 149.464 105.488C147.787 105.488 146.266 105.155 144.898 104.487C143.548 103.804 142.473 102.868 141.676 101.68C140.895 100.475 140.504 99.1081 140.504 97.5781C140.504 96.1947 140.764 94.9658 141.285 93.8916C141.806 92.8174 142.571 91.9141 143.58 91.1816C144.605 90.4329 145.883 89.8714 147.413 89.4971C148.943 89.1064 150.717 88.9111 152.735 88.9111H156.812ZM192.042 95.2588C192.042 97.4886 191.521 99.3685 190.479 100.898C189.438 102.412 188.006 103.56 186.183 104.341C184.376 105.106 182.325 105.488 180.03 105.488C177.735 105.488 175.676 105.106 173.854 104.341C172.031 103.56 170.59 102.412 169.532 100.898C168.474 99.3685 167.945 97.4886 167.945 95.2588C167.945 93.7614 168.246 92.4105 168.849 91.2061C169.451 89.9854 170.289 88.9437 171.363 88.0811C172.454 87.2021 173.731 86.5348 175.196 86.0791C176.661 85.6071 178.256 85.3711 179.981 85.3711C182.293 85.3711 184.36 85.778 186.183 86.5918C188.006 87.4056 189.438 88.5531 190.479 90.0342C191.521 91.5153 192.042 93.2568 192.042 95.2588ZM184.962 94.7949C184.962 93.7044 184.75 92.7686 184.327 91.9873C183.92 91.1898 183.342 90.5794 182.594 90.1562C181.845 89.7331 180.974 89.5215 179.981 89.5215C178.989 89.5215 178.118 89.7331 177.369 90.1562C176.62 90.5794 176.035 91.1898 175.611 91.9873C175.204 92.7686 175.001 93.7044 175.001 94.7949C175.001 95.8691 175.204 96.7969 175.611 97.5781C176.035 98.3594 176.62 98.9616 177.369 99.3848C178.134 99.7917 179.021 99.9951 180.03 99.9951C181.039 99.9951 181.91 99.7917 182.643 99.3848C183.391 98.9616 183.961 98.3594 184.352 97.5781C184.758 96.7969 184.962 95.8691 184.962 94.7949ZM191.285 78.877C191.285 80.6836 190.805 82.2868 189.845 83.6865C188.884 85.07 187.55 86.1523 185.841 86.9336C184.148 87.7148 182.211 88.1055 180.03 88.1055C177.833 88.1055 175.88 87.7148 174.171 86.9336C172.462 86.1523 171.127 85.07 170.167 83.6865C169.207 82.2868 168.727 80.6836 168.727 78.877C168.727 76.7285 169.207 74.9219 170.167 73.457C171.144 71.9759 172.478 70.8529 174.171 70.0879C175.88 69.3229 177.817 68.9404 179.981 68.9404C182.179 68.9404 184.124 69.3229 185.816 70.0879C187.525 70.8529 188.86 71.9759 189.82 73.457C190.797 74.9219 191.285 76.7285 191.285 78.877ZM184.254 79.1943C184.254 78.234 184.083 77.404 183.741 76.7041C183.399 75.988 182.911 75.4346 182.276 75.0439C181.658 74.6533 180.893 74.458 179.981 74.458C179.103 74.458 178.346 74.6452 177.711 75.0195C177.092 75.3939 176.612 75.9391 176.271 76.6553C175.945 77.3551 175.782 78.2015 175.782 79.1943C175.782 80.1546 175.945 81.001 176.271 81.7334C176.612 82.4495 177.101 83.0111 177.735 83.418C178.37 83.8249 179.135 84.0283 180.03 84.0283C180.925 84.0283 181.682 83.8249 182.301 83.418C182.936 83.0111 183.416 82.4495 183.741 81.7334C184.083 81.001 184.254 80.1546 184.254 79.1943ZM220.753 95.2588C220.753 97.4886 220.232 99.3685 219.19 100.898C218.149 102.412 216.716 103.56 214.894 104.341C213.087 105.106 211.036 105.488 208.741 105.488C206.446 105.488 204.387 105.106 202.564 104.341C200.742 103.56 199.301 102.412 198.243 100.898C197.185 99.3685 196.656 97.4886 196.656 95.2588C196.656 93.7614 196.957 92.4105 197.56 91.2061C198.162 89.9854 199 88.9437 200.074 88.0811C201.165 87.2021 202.442 86.5348 203.907 86.0791C205.372 85.6071 206.967 85.3711 208.692 85.3711C211.004 85.3711 213.071 85.778 214.894 86.5918C216.716 87.4056 218.149 88.5531 219.19 90.0342C220.232 91.5153 220.753 93.2568 220.753 95.2588ZM213.673 94.7949C213.673 93.7044 213.461 92.7686 213.038 91.9873C212.631 91.1898 212.053 90.5794 211.305 90.1562C210.556 89.7331 209.685 89.5215 208.692 89.5215C207.7 89.5215 206.829 89.7331 206.08 90.1562C205.331 90.5794 204.745 91.1898 204.322 91.9873C203.915 92.7686 203.712 93.7044 203.712 94.7949C203.712 95.8691 203.915 96.7969 204.322 97.5781C204.745 98.3594 205.331 98.9616 206.08 99.3848C206.845 99.7917 207.732 99.9951 208.741 99.9951C209.75 99.9951 210.621 99.7917 211.354 99.3848C212.102 98.9616 212.672 98.3594 213.062 97.5781C213.469 96.7969 213.673 95.8691 213.673 94.7949ZM219.996 78.877C219.996 80.6836 219.516 82.2868 218.556 83.6865C217.595 85.07 216.261 86.1523 214.552 86.9336C212.859 87.7148 210.922 88.1055 208.741 88.1055C206.544 88.1055 204.591 87.7148 202.882 86.9336C201.173 86.1523 199.838 85.07 198.878 83.6865C197.918 82.2868 197.438 80.6836 197.438 78.877C197.438 76.7285 197.918 74.9219 198.878 73.457C199.854 71.9759 201.189 70.8529 202.882 70.0879C204.591 69.3229 206.528 68.9404 208.692 68.9404C210.89 68.9404 212.835 69.3229 214.527 70.0879C216.236 70.8529 217.571 71.9759 218.531 73.457C219.508 74.9219 219.996 76.7285 219.996 78.877ZM212.965 79.1943C212.965 78.234 212.794 77.404 212.452 76.7041C212.11 75.988 211.622 75.4346 210.987 75.0439C210.369 74.6533 209.604 74.458 208.692 74.458C207.813 74.458 207.057 74.6452 206.422 75.0195C205.803 75.3939 205.323 75.9391 204.981 76.6553C204.656 77.3551 204.493 78.2015 204.493 79.1943C204.493 80.1546 204.656 81.001 204.981 81.7334C205.323 82.4495 205.812 83.0111 206.446 83.418C207.081 83.8249 207.846 84.0283 208.741 84.0283C209.636 84.0283 210.393 83.8249 211.012 83.418C211.646 83.0111 212.127 82.4495 212.452 81.7334C212.794 81.001 212.965 80.1546 212.965 79.1943ZM232.13 88.8135L226.515 87.4707L228.541 69.4531H248.512V75.1416H234.327L233.448 83.0273C233.92 82.7507 234.636 82.4577 235.597 82.1484C236.557 81.8229 237.631 81.6602 238.819 81.6602C240.545 81.6602 242.075 81.9287 243.409 82.4658C244.744 83.0029 245.875 83.7842 246.803 84.8096C247.747 85.835 248.463 87.0882 248.951 88.5693C249.439 90.0505 249.684 91.7269 249.684 93.5986C249.684 95.1774 249.439 96.6829 248.951 98.1152C248.463 99.5312 247.722 100.801 246.729 101.924C245.737 103.031 244.492 103.901 242.994 104.536C241.497 105.171 239.723 105.488 237.672 105.488C236.142 105.488 234.661 105.26 233.229 104.805C231.812 104.349 230.535 103.674 229.396 102.778C228.272 101.883 227.369 100.801 226.686 99.5312C226.018 98.2454 225.668 96.7806 225.636 95.1367H232.618C232.716 96.1458 232.976 97.0166 233.399 97.749C233.839 98.4652 234.417 99.0186 235.133 99.4092C235.849 99.7998 236.687 99.9951 237.647 99.9951C238.543 99.9951 239.308 99.8242 239.942 99.4824C240.577 99.1406 241.09 98.6686 241.48 98.0664C241.871 97.4479 242.156 96.7318 242.335 95.918C242.53 95.0879 242.628 94.1927 242.628 93.2324C242.628 92.2721 242.514 91.4014 242.286 90.6201C242.058 89.8389 241.708 89.1634 241.236 88.5938C240.764 88.0241 240.162 87.5846 239.43 87.2754C238.714 86.9661 237.875 86.8115 236.915 86.8115C235.613 86.8115 234.604 87.015 233.888 87.4219C233.188 87.8288 232.602 88.2926 232.13 88.8135Z" fill="white"/>
<path d="M46.5791 38.3018V43.1006H30.9932V38.3018H46.5791ZM32.8184 26.1406V56H26.666V26.1406H32.8184ZM50.9678 26.1406V56H44.8359V26.1406H50.9678ZM66.1641 56.4102C64.4414 56.4102 62.8965 56.1367 61.5293 55.5898C60.1621 55.0293 59 54.2568 58.043 53.2725C57.0996 52.2881 56.375 51.1465 55.8691 49.8477C55.3633 48.5352 55.1104 47.1406 55.1104 45.6641V44.8438C55.1104 43.1621 55.3496 41.624 55.8281 40.2295C56.3066 38.835 56.9902 37.625 57.8789 36.5996C58.7812 35.5742 59.875 34.7881 61.1602 34.2412C62.4453 33.6807 63.8945 33.4004 65.5078 33.4004C67.0801 33.4004 68.4746 33.6602 69.6914 34.1797C70.9082 34.6992 71.9268 35.4375 72.7471 36.3945C73.5811 37.3516 74.21 38.5 74.6338 39.8398C75.0576 41.166 75.2695 42.6426 75.2695 44.2695V46.7305H57.6328V42.793H69.4658V42.3418C69.4658 41.5215 69.3154 40.79 69.0146 40.1475C68.7275 39.4912 68.29 38.9717 67.7021 38.5889C67.1143 38.2061 66.3623 38.0146 65.4463 38.0146C64.667 38.0146 63.9971 38.1855 63.4365 38.5273C62.876 38.8691 62.418 39.3477 62.0625 39.9629C61.7207 40.5781 61.4609 41.3027 61.2832 42.1367C61.1191 42.957 61.0371 43.8594 61.0371 44.8438V45.6641C61.0371 46.5527 61.1602 47.373 61.4062 48.125C61.666 48.877 62.0283 49.5264 62.4932 50.0732C62.9717 50.6201 63.5459 51.0439 64.2158 51.3447C64.8994 51.6455 65.6719 51.7959 66.5332 51.7959C67.5996 51.7959 68.5908 51.5908 69.5068 51.1807C70.4365 50.7568 71.2363 50.1211 71.9062 49.2734L74.7773 52.3906C74.3125 53.0605 73.6768 53.7031 72.8701 54.3184C72.0771 54.9336 71.1201 55.4395 69.999 55.8359C68.8779 56.2188 67.5996 56.4102 66.1641 56.4102ZM84.9287 53.498L90.8145 33.8105H97.1514L88.2305 59.3428C88.0391 59.9033 87.7793 60.5049 87.4512 61.1475C87.1367 61.79 86.7061 62.3984 86.1592 62.9727C85.626 63.5605 84.9492 64.0391 84.1289 64.4082C83.3223 64.7773 82.3311 64.9619 81.1553 64.9619C80.5947 64.9619 80.1367 64.9277 79.7812 64.8594C79.4258 64.791 79.002 64.6953 78.5098 64.5723V60.2451C78.6602 60.2451 78.8174 60.2451 78.9814 60.2451C79.1455 60.2588 79.3027 60.2656 79.4531 60.2656C80.2324 60.2656 80.8682 60.1768 81.3604 59.999C81.8525 59.8213 82.249 59.5479 82.5498 59.1787C82.8506 58.8232 83.0898 58.3584 83.2676 57.7842L84.9287 53.498ZM82.4678 33.8105L87.2871 49.8887L88.1279 56.1436L84.1084 56.5742L76.1309 33.8105H82.4678ZM102.073 51.0166L102.053 54.9746C102.053 56.4922 101.67 58.0234 100.904 59.5684C100.152 61.1133 99.1953 62.3779 98.0332 63.3623L94.957 61.7832C95.2988 61.1543 95.6338 60.5254 95.9619 59.8965C96.29 59.2676 96.5635 58.5771 96.7822 57.8252C97.001 57.0732 97.1104 56.2188 97.1104 55.2617V51.0166H102.073ZM124.181 26.1406V56H118.049V26.1406H124.181ZM134.968 24.5V27.6172C134.968 28.5059 134.797 29.4219 134.455 30.3652C134.127 31.3086 133.683 32.2041 133.122 33.0518C132.562 33.8857 131.946 34.5967 131.276 35.1846L128.508 33.585C129.014 32.7783 129.444 31.9033 129.8 30.96C130.155 30.0029 130.333 28.8955 130.333 27.6377V24.5H134.968ZM144.709 38.4043V56H138.782V33.8105H144.34L144.709 38.4043ZM143.889 44.126H142.248C142.248 42.5811 142.433 41.1592 142.802 39.8604C143.185 38.5479 143.738 37.4131 144.463 36.4561C145.201 35.4854 146.11 34.7334 147.19 34.2002C148.271 33.667 149.521 33.4004 150.943 33.4004C151.928 33.4004 152.83 33.5508 153.65 33.8516C154.471 34.1387 155.175 34.5967 155.763 35.2256C156.364 35.8408 156.829 36.6475 157.157 37.6455C157.485 38.6299 157.649 39.8125 157.649 41.1934V56H151.743V41.8496C151.743 40.8379 151.606 40.0586 151.333 39.5117C151.06 38.9648 150.67 38.582 150.164 38.3633C149.672 38.1445 149.077 38.0352 148.38 38.0352C147.614 38.0352 146.944 38.1924 146.37 38.5068C145.81 38.8213 145.345 39.2588 144.976 39.8193C144.606 40.3662 144.333 41.0088 144.155 41.7471C143.978 42.4854 143.889 43.2783 143.889 44.126ZM157.096 43.4492L154.983 43.7158C154.983 42.2666 155.161 40.9199 155.517 39.6758C155.886 38.4316 156.426 37.3379 157.137 36.3945C157.861 35.4512 158.757 34.7197 159.823 34.2002C160.89 33.667 162.12 33.4004 163.515 33.4004C164.581 33.4004 165.552 33.5576 166.427 33.8721C167.302 34.1729 168.047 34.6582 168.662 35.3281C169.291 35.9844 169.77 36.8457 170.098 37.9121C170.439 38.9785 170.61 40.2842 170.61 41.8291V56H164.684V41.8291C164.684 40.8037 164.547 40.0244 164.273 39.4912C164.014 38.9443 163.631 38.5684 163.125 38.3633C162.633 38.1445 162.045 38.0352 161.361 38.0352C160.65 38.0352 160.028 38.1787 159.495 38.4658C158.962 38.7393 158.518 39.1221 158.162 39.6143C157.807 40.1064 157.54 40.6807 157.362 41.3369C157.185 41.9795 157.096 42.6836 157.096 43.4492Z" fill="white" fill-opacity="0.5"/>
<rect width="173" height="50" transform="translate(560 40)" fill="white"/>
<path d="M583.172 76H578.219L578.25 72.3438H583.172C584.401 72.3438 585.438 72.0677 586.281 71.5156C587.125 70.9531 587.76 70.1354 588.188 69.0625C588.625 67.9896 588.844 66.6927 588.844 65.1719V64.0625C588.844 62.8958 588.719 61.8698 588.469 60.9844C588.229 60.099 587.87 59.3542 587.391 58.75C586.911 58.1458 586.323 57.6927 585.625 57.3906C584.927 57.0781 584.125 56.9219 583.219 56.9219H578.125V53.25H583.219C584.74 53.25 586.13 53.5104 587.391 54.0312C588.661 54.5417 589.76 55.276 590.688 56.2344C591.615 57.1927 592.328 58.3385 592.828 59.6719C593.339 60.9948 593.594 62.4688 593.594 64.0938V65.1719C593.594 66.7865 593.339 68.2604 592.828 69.5938C592.328 70.9271 591.615 72.0729 590.688 73.0312C589.771 73.9792 588.672 74.7135 587.391 75.2344C586.12 75.7448 584.714 76 583.172 76ZM580.875 53.25V76H576.188V53.25H580.875ZM604.5 76.3125C603.188 76.3125 602.01 76.1042 600.969 75.6875C599.927 75.2604 599.042 74.6719 598.312 73.9219C597.594 73.1719 597.042 72.3021 596.656 71.3125C596.271 70.3125 596.078 69.25 596.078 68.125V67.5C596.078 66.2188 596.26 65.0469 596.625 63.9844C596.99 62.9219 597.51 62 598.188 61.2188C598.875 60.4375 599.708 59.8385 600.688 59.4219C601.667 58.9948 602.771 58.7812 604 58.7812C605.198 58.7812 606.26 58.9792 607.188 59.375C608.115 59.7708 608.891 60.3333 609.516 61.0625C610.151 61.7917 610.63 62.6667 610.953 63.6875C611.276 64.6979 611.438 65.8229 611.438 67.0625V68.9375H598V65.9375H607.016V65.5938C607.016 64.9688 606.901 64.4115 606.672 63.9219C606.453 63.4219 606.12 63.026 605.672 62.7344C605.224 62.4427 604.651 62.2969 603.953 62.2969C603.359 62.2969 602.849 62.4271 602.422 62.6875C601.995 62.9479 601.646 63.3125 601.375 63.7812C601.115 64.25 600.917 64.8021 600.781 65.4375C600.656 66.0625 600.594 66.75 600.594 67.5V68.125C600.594 68.8021 600.688 69.4271 600.875 70C601.073 70.5729 601.349 71.0677 601.703 71.4844C602.068 71.901 602.505 72.224 603.016 72.4531C603.536 72.6823 604.125 72.7969 604.781 72.7969C605.594 72.7969 606.349 72.6406 607.047 72.3281C607.755 72.0052 608.365 71.5208 608.875 70.875L611.062 73.25C610.708 73.7604 610.224 74.25 609.609 74.7188C609.005 75.1875 608.276 75.5729 607.422 75.875C606.568 76.1667 605.594 76.3125 604.5 76.3125ZM619.531 72.7188L623.281 59.0938H627.984L622.281 76H619.438L619.531 72.7188ZM616.953 59.0938L620.719 72.7344L620.797 76H617.938L612.234 59.0938H616.953ZM637.562 76.3125C636.25 76.3125 635.073 76.1042 634.031 75.6875C632.99 75.2604 632.104 74.6719 631.375 73.9219C630.656 73.1719 630.104 72.3021 629.719 71.3125C629.333 70.3125 629.141 69.25 629.141 68.125V67.5C629.141 66.2188 629.323 65.0469 629.688 63.9844C630.052 62.9219 630.573 62 631.25 61.2188C631.938 60.4375 632.771 59.8385 633.75 59.4219C634.729 58.9948 635.833 58.7812 637.062 58.7812C638.26 58.7812 639.323 58.9792 640.25 59.375C641.177 59.7708 641.953 60.3333 642.578 61.0625C643.214 61.7917 643.693 62.6667 644.016 63.6875C644.339 64.6979 644.5 65.8229 644.5 67.0625V68.9375H631.062V65.9375H640.078V65.5938C640.078 64.9688 639.964 64.4115 639.734 63.9219C639.516 63.4219 639.182 63.026 638.734 62.7344C638.286 62.4427 637.714 62.2969 637.016 62.2969C636.422 62.2969 635.911 62.4271 635.484 62.6875C635.057 62.9479 634.708 63.3125 634.438 63.7812C634.177 64.25 633.979 64.8021 633.844 65.4375C633.719 66.0625 633.656 66.75 633.656 67.5V68.125C633.656 68.8021 633.75 69.4271 633.938 70C634.135 70.5729 634.411 71.0677 634.766 71.4844C635.13 71.901 635.568 72.224 636.078 72.4531C636.599 72.6823 637.188 72.7969 637.844 72.7969C638.656 72.7969 639.411 72.6406 640.109 72.3281C640.818 72.0052 641.427 71.5208 641.938 70.875L644.125 73.25C643.771 73.7604 643.286 74.25 642.672 74.7188C642.068 75.1875 641.339 75.5729 640.484 75.875C639.63 76.1667 638.656 76.3125 637.562 76.3125ZM651.812 52V76H647.297V52H651.812ZM654.812 67.7188V67.3906C654.812 66.151 654.99 65.0104 655.344 63.9688C655.698 62.9167 656.214 62.0052 656.891 61.2344C657.568 60.4635 658.401 59.8646 659.391 59.4375C660.38 59 661.516 58.7812 662.797 58.7812C664.078 58.7812 665.219 59 666.219 59.4375C667.219 59.8646 668.057 60.4635 668.734 61.2344C669.422 62.0052 669.943 62.9167 670.297 63.9688C670.651 65.0104 670.828 66.151 670.828 67.3906V67.7188C670.828 68.9479 670.651 70.0885 670.297 71.1406C669.943 72.1823 669.422 73.0938 668.734 73.875C668.057 74.6458 667.224 75.2448 666.234 75.6719C665.245 76.099 664.109 76.3125 662.828 76.3125C661.547 76.3125 660.406 76.099 659.406 75.6719C658.417 75.2448 657.578 74.6458 656.891 73.875C656.214 73.0938 655.698 72.1823 655.344 71.1406C654.99 70.0885 654.812 68.9479 654.812 67.7188ZM659.312 67.3906V67.7188C659.312 68.4271 659.375 69.0885 659.5 69.7031C659.625 70.3177 659.823 70.8594 660.094 71.3281C660.375 71.7865 660.74 72.1458 661.188 72.4062C661.635 72.6667 662.182 72.7969 662.828 72.7969C663.453 72.7969 663.99 72.6667 664.438 72.4062C664.885 72.1458 665.245 71.7865 665.516 71.3281C665.786 70.8594 665.984 70.3177 666.109 69.7031C666.245 69.0885 666.312 68.4271 666.312 67.7188V67.3906C666.312 66.7031 666.245 66.0573 666.109 65.4531C665.984 64.8385 665.781 64.2969 665.5 63.8281C665.229 63.349 664.87 62.974 664.422 62.7031C663.974 62.4323 663.432 62.2969 662.797 62.2969C662.161 62.2969 661.62 62.4323 661.172 62.7031C660.734 62.974 660.375 63.349 660.094 63.8281C659.823 64.2969 659.625 64.8385 659.5 65.4531C659.375 66.0573 659.312 66.7031 659.312 67.3906ZM678.094 62.3438V82.5H673.594V59.0938H677.766L678.094 62.3438ZM688.797 67.3594V67.6875C688.797 68.9167 688.651 70.0573 688.359 71.1094C688.078 72.1615 687.661 73.0781 687.109 73.8594C686.557 74.6302 685.87 75.2344 685.047 75.6719C684.234 76.099 683.297 76.3125 682.234 76.3125C681.203 76.3125 680.307 76.1042 679.547 75.6875C678.786 75.2708 678.146 74.6875 677.625 73.9375C677.115 73.1771 676.703 72.2969 676.391 71.2969C676.078 70.2969 675.839 69.224 675.672 68.0781V67.2188C675.839 65.9896 676.078 64.8646 676.391 63.8438C676.703 62.8125 677.115 61.9219 677.625 61.1719C678.146 60.4115 678.781 59.8229 679.531 59.4062C680.292 58.9896 681.182 58.7812 682.203 58.7812C683.276 58.7812 684.219 58.9844 685.031 59.3906C685.854 59.7969 686.542 60.3802 687.094 61.1406C687.656 61.901 688.078 62.8073 688.359 63.8594C688.651 64.9115 688.797 66.0781 688.797 67.3594ZM684.281 67.6875V67.3594C684.281 66.6406 684.219 65.9792 684.094 65.375C683.979 64.7604 683.792 64.224 683.531 63.7656C683.281 63.3073 682.948 62.9531 682.531 62.7031C682.125 62.4427 681.63 62.3125 681.047 62.3125C680.432 62.3125 679.906 62.4115 679.469 62.6094C679.042 62.8073 678.693 63.0938 678.422 63.4688C678.151 63.8438 677.948 64.2917 677.812 64.8125C677.677 65.3333 677.594 65.9219 677.562 66.5781V68.75C677.615 69.5208 677.76 70.2135 678 70.8281C678.24 71.4323 678.609 71.9115 679.109 72.2656C679.609 72.6198 680.266 72.7969 681.078 72.7969C681.672 72.7969 682.172 72.6667 682.578 72.4062C682.984 72.1354 683.312 71.7656 683.562 71.2969C683.823 70.8281 684.005 70.2865 684.109 69.6719C684.224 69.0573 684.281 68.3958 684.281 67.6875ZM699.375 76.3125C698.062 76.3125 696.885 76.1042 695.844 75.6875C694.802 75.2604 693.917 74.6719 693.188 73.9219C692.469 73.1719 691.917 72.3021 691.531 71.3125C691.146 70.3125 690.953 69.25 690.953 68.125V67.5C690.953 66.2188 691.135 65.0469 691.5 63.9844C691.865 62.9219 692.385 62 693.062 61.2188C693.75 60.4375 694.583 59.8385 695.562 59.4219C696.542 58.9948 697.646 58.7812 698.875 58.7812C700.073 58.7812 701.135 58.9792 702.062 59.375C702.99 59.7708 703.766 60.3333 704.391 61.0625C705.026 61.7917 705.505 62.6667 705.828 63.6875C706.151 64.6979 706.312 65.8229 706.312 67.0625V68.9375H692.875V65.9375H701.891V65.5938C701.891 64.9688 701.776 64.4115 701.547 63.9219C701.328 63.4219 700.995 63.026 700.547 62.7344C700.099 62.4427 699.526 62.2969 698.828 62.2969C698.234 62.2969 697.724 62.4271 697.297 62.6875C696.87 62.9479 696.521 63.3125 696.25 63.7812C695.99 64.25 695.792 64.8021 695.656 65.4375C695.531 66.0625 695.469 66.75 695.469 67.5V68.125C695.469 68.8021 695.562 69.4271 695.75 70C695.948 70.5729 696.224 71.0677 696.578 71.4844C696.943 71.901 697.38 72.224 697.891 72.4531C698.411 72.6823 699 72.7969 699.656 72.7969C700.469 72.7969 701.224 72.6406 701.922 72.3281C702.63 72.0052 703.24 71.5208 703.75 70.875L705.938 73.25C705.583 73.7604 705.099 74.25 704.484 74.7188C703.88 75.1875 703.151 75.5729 702.297 75.875C701.443 76.1667 700.469 76.3125 699.375 76.3125ZM713.375 62.7812V76H708.875V59.0938H713.109L713.375 62.7812ZM718.469 58.9844L718.391 63.1562C718.172 63.125 717.906 63.099 717.594 63.0781C717.292 63.0469 717.016 63.0312 716.766 63.0312C716.13 63.0312 715.578 63.1146 715.109 63.2812C714.651 63.4375 714.266 63.6719 713.953 63.9844C713.651 64.2969 713.422 64.6771 713.266 65.125C713.12 65.5729 713.036 66.0833 713.016 66.6562L712.109 66.375C712.109 65.2812 712.219 64.276 712.438 63.3594C712.656 62.4323 712.974 61.625 713.391 60.9375C713.818 60.25 714.339 59.7188 714.953 59.3438C715.568 58.9688 716.271 58.7812 717.062 58.7812C717.312 58.7812 717.568 58.8021 717.828 58.8438C718.089 58.875 718.302 58.9219 718.469 58.9844Z" fill="#E94C42"/>
</svg>
