<svg width="800" height="380" viewBox="0 0 800 380" fill="none" xmlns="http://www.w3.org/2000/svg">
<rect width="800" height="380" fill="#1C1919"/>
<path d="M307.251 66.3428V94.1428H302.691V81.9828H289.611V94.1428H285.051V66.3428H289.611V78.2628H302.691V66.3428H307.251ZM315.574 69.1828C314.747 69.1828 314.054 68.9028 313.494 68.3428C312.934 67.7828 312.654 67.0895 312.654 66.2628C312.654 65.4362 312.934 64.7428 313.494 64.1828C314.054 63.6228 314.747 63.3428 315.574 63.3428C316.374 63.3428 317.054 63.6228 317.614 64.1828C318.174 64.7428 318.454 65.4362 318.454 66.2628C318.454 67.0895 318.174 67.7828 317.614 68.3428C317.054 68.9028 316.374 69.1828 315.574 69.1828ZM317.814 72.1028V94.1428H313.254V72.1028H317.814ZM339.511 75.8228V88.0228C339.511 88.8495 339.698 89.4495 340.071 89.8228C340.471 90.1695 341.138 90.3428 342.071 90.3428H344.871V94.1428H341.271C339.218 94.1428 337.645 93.6628 336.551 92.7028C335.458 91.7428 334.911 90.1828 334.911 88.0228V75.8228H332.311V72.1028H334.911V66.6228H339.511V72.1028H344.871V75.8228H339.511ZM360.474 71.7428C362.154 71.7428 363.648 72.1028 364.954 72.8228C366.288 73.5428 367.328 74.6095 368.074 76.0228C368.848 77.4362 369.234 79.1428 369.234 81.1428V94.1428H364.714V81.8228C364.714 79.8495 364.221 78.3428 363.234 77.3028C362.248 76.2362 360.901 75.7028 359.194 75.7028C357.488 75.7028 356.128 76.2362 355.114 77.3028C354.128 78.3428 353.634 79.8495 353.634 81.8228V94.1428H349.074V64.5428H353.634V74.6628C354.408 73.7295 355.381 73.0095 356.554 72.5028C357.754 71.9962 359.061 71.7428 360.474 71.7428ZM395.251 82.5828C395.251 83.4095 395.197 84.1562 395.091 84.8228H378.251C378.384 86.5828 379.037 87.9962 380.211 89.0628C381.384 90.1295 382.824 90.6628 384.531 90.6628C386.984 90.6628 388.717 89.6362 389.731 87.5828H394.651C393.984 89.6095 392.771 91.2762 391.011 92.5828C389.277 93.8628 387.117 94.5028 384.531 94.5028C382.424 94.5028 380.531 94.0362 378.851 93.1028C377.197 92.1428 375.891 90.8095 374.931 89.1028C373.997 87.3695 373.531 85.3695 373.531 83.1028C373.531 80.8362 373.984 78.8495 374.891 77.1428C375.824 75.4095 377.117 74.0762 378.771 73.1428C380.451 72.2095 382.371 71.7428 384.531 71.7428C386.611 71.7428 388.464 72.1962 390.091 73.1028C391.717 74.0095 392.984 75.2895 393.891 76.9428C394.797 78.5695 395.251 80.4495 395.251 82.5828ZM390.491 81.1428C390.464 79.4628 389.864 78.1162 388.691 77.1028C387.517 76.0895 386.064 75.5828 384.331 75.5828C382.757 75.5828 381.411 76.0895 380.291 77.1028C379.171 78.0895 378.504 79.4362 378.291 81.1428H390.491ZM404.298 75.3028C404.965 74.1828 405.845 73.3162 406.938 72.7028C408.058 72.0628 409.378 71.7428 410.898 71.7428V76.4628H409.738C407.952 76.4628 406.592 76.9162 405.658 77.8228C404.752 78.7295 404.298 80.3028 404.298 82.5428V94.1428H399.738V72.1028H404.298V75.3028ZM435.29 82.5828C435.29 83.4095 435.237 84.1562 435.13 84.8228H418.29C418.423 86.5828 419.077 87.9962 420.25 89.0628C421.423 90.1295 422.863 90.6628 424.57 90.6628C427.023 90.6628 428.757 89.6362 429.77 87.5828H434.69C434.023 89.6095 432.81 91.2762 431.05 92.5828C429.317 93.8628 427.157 94.5028 424.57 94.5028C422.463 94.5028 420.57 94.0362 418.89 93.1028C417.237 92.1428 415.93 90.8095 414.97 89.1028C414.037 87.3695 413.57 85.3695 413.57 83.1028C413.57 80.8362 414.023 78.8495 414.93 77.1428C415.863 75.4095 417.157 74.0762 418.81 73.1428C420.49 72.2095 422.41 71.7428 424.57 71.7428C426.65 71.7428 428.503 72.1962 430.13 73.1028C431.757 74.0095 433.023 75.2895 433.93 76.9428C434.837 78.5695 435.29 80.4495 435.29 82.5828ZM430.53 81.1428C430.503 79.4628 429.903 78.1162 428.73 77.1028C427.557 76.0895 426.103 75.5828 424.37 75.5828C422.797 75.5828 421.45 76.0895 420.33 77.1028C419.21 78.0895 418.543 79.4362 418.33 81.1428H430.53ZM444.777 88.6628L439.937 99.7028H436.977L439.817 88.6628H444.777ZM463.712 66.3428V94.1428H459.152V66.3428H463.712ZM470.419 66.3428H475.379L471.179 75.8628H467.979L470.419 66.3428ZM506.067 71.7428C507.8 71.7428 509.347 72.1028 510.707 72.8228C512.093 73.5428 513.173 74.6095 513.947 76.0228C514.747 77.4362 515.147 79.1428 515.147 81.1428V94.1428H510.627V81.8228C510.627 79.8495 510.133 78.3428 509.147 77.3028C508.16 76.2362 506.813 75.7028 505.107 75.7028C503.4 75.7028 502.04 76.2362 501.027 77.3028C500.04 78.3428 499.547 79.8495 499.547 81.8228V94.1428H495.027V81.8228C495.027 79.8495 494.533 78.3428 493.547 77.3028C492.56 76.2362 491.213 75.7028 489.507 75.7028C487.8 75.7028 486.44 76.2362 485.427 77.3028C484.44 78.3428 483.947 79.8495 483.947 81.8228V94.1428H479.387V72.1028H483.947V74.6228C484.693 73.7162 485.64 73.0095 486.787 72.5028C487.933 71.9962 489.16 71.7428 490.467 71.7428C492.227 71.7428 493.8 72.1162 495.187 72.8628C496.573 73.6095 497.64 74.6895 498.387 76.1028C499.053 74.7695 500.093 73.7162 501.507 72.9428C502.92 72.1428 504.44 71.7428 506.067 71.7428Z" fill="white"/>
<path d="M327.513 126.151C327.513 128.241 327.009 130.201 326.001 132.031C325.031 133.86 323.481 135.335 321.353 136.455C319.263 137.575 316.612 138.135 313.401 138.135H306.849V153.143H299.009V114.055H313.401C316.425 114.055 319.001 114.577 321.129 115.623C323.257 116.668 324.844 118.105 325.889 119.935C326.972 121.764 327.513 123.836 327.513 126.151ZM313.065 131.807C315.231 131.807 316.836 131.321 317.881 130.351C318.927 129.343 319.449 127.943 319.449 126.151C319.449 122.343 317.321 120.439 313.065 120.439H306.849V131.807H313.065ZM329.384 137.519C329.384 134.383 330 131.601 331.232 129.175C332.501 126.748 334.2 124.881 336.328 123.575C338.493 122.268 340.901 121.615 343.552 121.615C345.866 121.615 347.882 122.081 349.6 123.015C351.354 123.948 352.754 125.124 353.8 126.543V122.119H361.696V153.143H353.8V148.607C352.792 150.063 351.392 151.276 349.6 152.247C347.845 153.18 345.81 153.647 343.496 153.647C340.882 153.647 338.493 152.975 336.328 151.631C334.2 150.287 332.501 148.401 331.232 145.975C330 143.511 329.384 140.692 329.384 137.519ZM353.8 137.631C353.8 135.727 353.426 134.103 352.68 132.759C351.933 131.377 350.925 130.332 349.656 129.623C348.386 128.876 347.024 128.503 345.568 128.503C344.112 128.503 342.768 128.857 341.536 129.567C340.304 130.276 339.296 131.321 338.512 132.703C337.765 134.047 337.392 135.652 337.392 137.519C337.392 139.385 337.765 141.028 338.512 142.447C339.296 143.828 340.304 144.892 341.536 145.639C342.805 146.385 344.149 146.759 345.568 146.759C347.024 146.759 348.386 146.404 349.656 145.695C350.925 144.948 351.933 143.903 352.68 142.559C353.426 141.177 353.8 139.535 353.8 137.631ZM384.865 121.671C388.561 121.671 391.548 122.847 393.825 125.199C396.102 127.513 397.241 130.761 397.241 134.943V153.143H389.401V136.007C389.401 133.543 388.785 131.657 387.553 130.351C386.321 129.007 384.641 128.335 382.513 128.335C380.348 128.335 378.63 129.007 377.361 130.351C376.129 131.657 375.513 133.543 375.513 136.007V153.143H367.673V122.119H375.513V125.983C376.558 124.639 377.884 123.593 379.489 122.847C381.132 122.063 382.924 121.671 384.865 121.671ZM401 137.519C401 134.383 401.616 131.601 402.848 129.175C404.118 126.748 405.835 124.881 408 123.575C410.166 122.268 412.574 121.615 415.224 121.615C417.24 121.615 419.163 122.063 420.992 122.959C422.822 123.817 424.278 124.975 425.36 126.431V111.703H433.312V153.143H425.36V148.551C424.39 150.081 423.027 151.313 421.272 152.247C419.518 153.18 417.483 153.647 415.168 153.647C412.555 153.647 410.166 152.975 408 151.631C405.835 150.287 404.118 148.401 402.848 145.975C401.616 143.511 401 140.692 401 137.519ZM425.416 137.631C425.416 135.727 425.043 134.103 424.296 132.759C423.55 131.377 422.542 130.332 421.272 129.623C420.003 128.876 418.64 128.503 417.184 128.503C415.728 128.503 414.384 128.857 413.152 129.567C411.92 130.276 410.912 131.321 410.128 132.703C409.382 134.047 409.008 135.652 409.008 137.519C409.008 139.385 409.382 141.028 410.128 142.447C410.912 143.828 411.92 144.892 413.152 145.639C414.422 146.385 415.766 146.759 417.184 146.759C418.64 146.759 420.003 146.404 421.272 145.695C422.542 144.948 423.55 143.903 424.296 142.559C425.043 141.177 425.416 139.535 425.416 137.631ZM443.265 118.423C441.884 118.423 440.727 117.993 439.793 117.135C438.897 116.239 438.449 115.137 438.449 113.831C438.449 112.524 438.897 111.441 439.793 110.583C440.727 109.687 441.884 109.239 443.265 109.239C444.647 109.239 445.785 109.687 446.681 110.583C447.615 111.441 448.081 112.524 448.081 113.831C448.081 115.137 447.615 116.239 446.681 117.135C445.785 117.993 444.647 118.423 443.265 118.423ZM447.129 122.119V153.143H439.289V122.119H447.129ZM482.035 136.959C482.035 138.079 481.961 139.087 481.811 139.983H459.131C459.318 142.223 460.102 143.977 461.483 145.247C462.865 146.516 464.563 147.151 466.579 147.151C469.491 147.151 471.563 145.9 472.795 143.399H481.251C480.355 146.385 478.638 148.849 476.099 150.791C473.561 152.695 470.443 153.647 466.747 153.647C463.761 153.647 461.073 152.993 458.683 151.687C456.331 150.343 454.483 148.457 453.139 146.031C451.833 143.604 451.179 140.804 451.179 137.631C451.179 134.42 451.833 131.601 453.139 129.175C454.446 126.748 456.275 124.881 458.627 123.575C460.979 122.268 463.686 121.615 466.747 121.615C469.697 121.615 472.329 122.249 474.643 123.519C476.995 124.788 478.806 126.599 480.075 128.951C481.382 131.265 482.035 133.935 482.035 136.959ZM473.915 134.719C473.878 132.703 473.15 131.097 471.731 129.903C470.313 128.671 468.577 128.055 466.523 128.055C464.582 128.055 462.939 128.652 461.595 129.847C460.289 131.004 459.486 132.628 459.187 134.719H473.915ZM493.918 126.935C494.926 125.292 496.233 124.004 497.838 123.071C499.481 122.137 501.347 121.671 503.438 121.671V129.903H501.366C498.902 129.903 497.035 130.481 495.766 131.639C494.534 132.796 493.918 134.812 493.918 137.687V153.143H486.078V122.119H493.918V126.935Z" fill="#FF6D64"/>
<path d="M437.166 190.463C433.315 193.726 428.88 196.379 422.425 197.431C403.172 200.566 392.161 185.277 374.475 188.625C370.094 189.455 366.202 190.907 362.834 192.643" stroke="#332F2F" stroke-width="8" stroke-linecap="round"/>
<path d="M218.148 250.897H208.42L206.628 255.857H203.556L211.62 233.681H214.98L223.012 255.857H219.94L218.148 250.897ZM217.316 248.529L213.284 237.265L209.252 248.529H217.316ZM239.346 256.145C238.002 256.145 236.796 255.921 235.73 255.473C234.663 255.004 233.82 254.364 233.202 253.553C232.583 252.721 232.242 251.772 232.178 250.705H235.186C235.271 251.58 235.676 252.295 236.402 252.849C237.148 253.404 238.119 253.681 239.314 253.681C240.423 253.681 241.298 253.436 241.938 252.945C242.578 252.455 242.898 251.836 242.898 251.089C242.898 250.321 242.556 249.756 241.874 249.393C241.191 249.009 240.135 248.636 238.706 248.273C237.404 247.932 236.338 247.591 235.506 247.249C234.695 246.887 233.991 246.364 233.394 245.681C232.818 244.977 232.53 244.06 232.53 242.929C232.53 242.033 232.796 241.212 233.33 240.465C233.863 239.719 234.62 239.132 235.602 238.705C236.583 238.257 237.703 238.033 238.962 238.033C240.903 238.033 242.471 238.524 243.666 239.505C244.86 240.487 245.5 241.831 245.586 243.537H242.674C242.61 242.62 242.236 241.884 241.554 241.329C240.892 240.775 239.996 240.497 238.866 240.497C237.82 240.497 236.988 240.721 236.37 241.169C235.751 241.617 235.442 242.204 235.442 242.929C235.442 243.505 235.623 243.985 235.986 244.369C236.37 244.732 236.839 245.031 237.394 245.265C237.97 245.479 238.759 245.724 239.762 246.001C241.02 246.343 242.044 246.684 242.834 247.025C243.623 247.345 244.295 247.836 244.85 248.497C245.426 249.159 245.724 250.023 245.746 251.089C245.746 252.049 245.479 252.913 244.946 253.681C244.412 254.449 243.655 255.057 242.674 255.505C241.714 255.932 240.604 256.145 239.346 256.145ZM264.896 246.417C264.896 246.972 264.864 247.559 264.8 248.177H250.784C250.891 249.905 251.478 251.26 252.544 252.241C253.632 253.201 254.944 253.681 256.48 253.681C257.739 253.681 258.784 253.393 259.616 252.817C260.47 252.22 261.067 251.431 261.408 250.449H264.545C264.075 252.135 263.136 253.511 261.728 254.577C260.32 255.623 258.571 256.145 256.48 256.145C254.816 256.145 253.323 255.772 252 255.025C250.699 254.279 249.675 253.223 248.928 251.857C248.182 250.471 247.808 248.871 247.808 247.057C247.808 245.244 248.171 243.655 248.896 242.289C249.622 240.924 250.635 239.879 251.936 239.153C253.259 238.407 254.774 238.033 256.48 238.033C258.144 238.033 259.616 238.396 260.896 239.121C262.176 239.847 263.158 240.849 263.84 242.129C264.544 243.388 264.896 244.817 264.896 246.417ZM261.888 245.809C261.888 244.7 261.643 243.751 261.152 242.961C260.662 242.151 259.99 241.543 259.136 241.137C258.304 240.711 257.376 240.497 256.352 240.497C254.88 240.497 253.622 240.967 252.576 241.905C251.552 242.844 250.966 244.145 250.816 245.809H261.888ZM270.692 232.177V255.857H267.78V232.177H270.692ZM281.831 240.721H278.151V255.857H275.239V240.721H272.967V238.321H275.239V237.073C275.239 235.111 275.741 233.681 276.743 232.785C277.767 231.868 279.399 231.409 281.639 231.409V233.841C280.359 233.841 279.453 234.097 278.919 234.609C278.407 235.1 278.151 235.921 278.151 237.073V238.321H281.831V240.721ZM296.426 242.897V245.361H283.658V242.897H296.426ZM304.483 240.721V251.057C304.483 251.911 304.665 252.519 305.027 252.881C305.39 253.223 306.019 253.393 306.915 253.393H309.059V255.857H306.435C304.814 255.857 303.598 255.484 302.787 254.737C301.977 253.991 301.571 252.764 301.571 251.057V240.721H299.299V238.321H301.571V233.905H304.483V238.321H309.059V240.721H304.483ZM310.54 247.025C310.54 245.233 310.902 243.665 311.628 242.321C312.353 240.956 313.345 239.9 314.604 239.153C315.884 238.407 317.302 238.033 318.86 238.033C320.396 238.033 321.729 238.364 322.86 239.025C323.99 239.687 324.833 240.519 325.388 241.521V238.321H328.332V255.857H325.388V252.593C324.812 253.617 323.948 254.471 322.796 255.153C321.665 255.815 320.342 256.145 318.828 256.145C317.27 256.145 315.862 255.761 314.604 254.993C313.345 254.225 312.353 253.148 311.628 251.761C310.902 250.375 310.54 248.796 310.54 247.025ZM325.388 247.057C325.388 245.735 325.121 244.583 324.588 243.601C324.054 242.62 323.329 241.873 322.412 241.361C321.516 240.828 320.524 240.561 319.436 240.561C318.348 240.561 317.356 240.817 316.46 241.329C315.564 241.841 314.849 242.588 314.316 243.569C313.782 244.551 313.516 245.703 313.516 247.025C313.516 248.369 313.782 249.543 314.316 250.545C314.849 251.527 315.564 252.284 316.46 252.817C317.356 253.329 318.348 253.585 319.436 253.585C320.524 253.585 321.516 253.329 322.412 252.817C323.329 252.284 324.054 251.527 324.588 250.545C325.121 249.543 325.388 248.38 325.388 247.057ZM347.845 238.321V255.857H344.933V253.265C344.378 254.161 343.599 254.865 342.597 255.377C341.615 255.868 340.527 256.113 339.333 256.113C337.967 256.113 336.741 255.836 335.653 255.281C334.565 254.705 333.701 253.852 333.061 252.721C332.442 251.591 332.133 250.215 332.133 248.593V238.321H335.013V248.209C335.013 249.937 335.45 251.271 336.325 252.209C337.199 253.127 338.394 253.585 339.909 253.585C341.466 253.585 342.693 253.105 343.589 252.145C344.485 251.185 344.933 249.788 344.933 247.953V238.321H347.845ZM359.033 238.033C360.548 238.033 361.871 238.364 363.001 239.025C364.153 239.687 365.007 240.519 365.561 241.521V238.321H368.505V256.241C368.505 257.841 368.164 259.26 367.481 260.497C366.799 261.756 365.817 262.737 364.537 263.441C363.279 264.145 361.807 264.497 360.121 264.497C357.817 264.497 355.897 263.953 354.361 262.865C352.825 261.777 351.919 260.295 351.641 258.417H354.521C354.841 259.484 355.503 260.337 356.505 260.977C357.508 261.639 358.713 261.969 360.121 261.969C361.721 261.969 363.023 261.468 364.025 260.465C365.049 259.463 365.561 258.055 365.561 256.241V252.561C364.985 253.585 364.132 254.439 363.001 255.121C361.871 255.804 360.548 256.145 359.033 256.145C357.476 256.145 356.057 255.761 354.777 254.993C353.519 254.225 352.527 253.148 351.801 251.761C351.076 250.375 350.713 248.796 350.713 247.025C350.713 245.233 351.076 243.665 351.801 242.321C352.527 240.956 353.519 239.9 354.777 239.153C356.057 238.407 357.476 238.033 359.033 238.033ZM365.561 247.057C365.561 245.735 365.295 244.583 364.761 243.601C364.228 242.62 363.503 241.873 362.585 241.361C361.689 240.828 360.697 240.561 359.609 240.561C358.521 240.561 357.529 240.817 356.633 241.329C355.737 241.841 355.023 242.588 354.489 243.569C353.956 244.551 353.689 245.703 353.689 247.025C353.689 248.369 353.956 249.543 354.489 250.545C355.023 251.527 355.737 252.284 356.633 252.817C357.529 253.329 358.521 253.585 359.609 253.585C360.697 253.585 361.689 253.329 362.585 252.817C363.503 252.284 364.228 251.527 364.761 250.545C365.295 249.543 365.561 248.38 365.561 247.057ZM381.171 238.001C382.493 238.001 383.688 238.289 384.755 238.865C385.821 239.42 386.653 240.263 387.251 241.393C387.869 242.524 388.179 243.9 388.179 245.521V255.857H385.299V245.937C385.299 244.188 384.861 242.855 383.987 241.937C383.112 240.999 381.917 240.529 380.403 240.529C378.867 240.529 377.64 241.009 376.723 241.969C375.827 242.929 375.379 244.327 375.379 246.161V255.857H372.467V232.177H375.379V240.817C375.955 239.921 376.744 239.228 377.747 238.737C378.771 238.247 379.912 238.001 381.171 238.001ZM395.527 240.721V251.057C395.527 251.911 395.709 252.519 396.071 252.881C396.434 253.223 397.063 253.393 397.959 253.393H400.103V255.857H397.479C395.858 255.857 394.642 255.484 393.831 254.737C393.021 253.991 392.615 252.764 392.615 251.057V240.721H390.343V238.321H392.615V233.905H395.527V238.321H400.103V240.721H395.527Z" fill="#888080"/>
<path d="M203.876 301.025C203.876 299.233 204.239 297.665 204.964 296.321C205.689 294.956 206.681 293.9 207.94 293.153C209.22 292.407 210.639 292.033 212.196 292.033C213.732 292.033 215.065 292.364 216.196 293.025C217.327 293.687 218.169 294.519 218.724 295.521V292.321H221.668V309.857H218.724V306.593C218.148 307.617 217.284 308.471 216.132 309.153C215.001 309.815 213.679 310.145 212.164 310.145C210.607 310.145 209.199 309.761 207.94 308.993C206.681 308.225 205.689 307.148 204.964 305.761C204.239 304.375 203.876 302.796 203.876 301.025ZM218.724 301.057C218.724 299.735 218.457 298.583 217.924 297.601C217.391 296.62 216.665 295.873 215.748 295.361C214.852 294.828 213.86 294.561 212.772 294.561C211.684 294.561 210.692 294.817 209.796 295.329C208.9 295.841 208.185 296.588 207.652 297.569C207.119 298.551 206.852 299.703 206.852 301.025C206.852 302.369 207.119 303.543 207.652 304.545C208.185 305.527 208.9 306.284 209.796 306.817C210.692 307.329 211.684 307.585 212.772 307.585C213.86 307.585 214.852 307.329 215.748 306.817C216.665 306.284 217.391 305.527 217.924 304.545C218.457 303.543 218.724 302.38 218.724 301.057ZM234.173 292.001C236.306 292.001 238.034 292.652 239.357 293.953C240.68 295.233 241.341 297.089 241.341 299.521V309.857H238.461V299.937C238.461 298.188 238.024 296.855 237.149 295.937C236.274 294.999 235.08 294.529 233.565 294.529C232.029 294.529 230.802 295.009 229.885 295.969C228.989 296.929 228.541 298.327 228.541 300.161V309.857H225.629V292.321H228.541V294.817C229.117 293.921 229.896 293.228 230.877 292.737C231.88 292.247 232.978 292.001 234.173 292.001ZM244.05 301.025C244.05 299.233 244.412 297.665 245.138 296.321C245.863 294.956 246.855 293.9 248.114 293.153C249.394 292.407 250.823 292.033 252.402 292.033C253.767 292.033 255.036 292.353 256.21 292.993C257.383 293.612 258.279 294.433 258.898 295.457V286.177H261.842V309.857H258.898V306.561C258.322 307.607 257.468 308.471 256.338 309.153C255.207 309.815 253.884 310.145 252.37 310.145C250.812 310.145 249.394 309.761 248.114 308.993C246.855 308.225 245.863 307.148 245.138 305.761C244.412 304.375 244.05 302.796 244.05 301.025ZM258.898 301.057C258.898 299.735 258.631 298.583 258.098 297.601C257.564 296.62 256.839 295.873 255.922 295.361C255.026 294.828 254.034 294.561 252.946 294.561C251.858 294.561 250.866 294.817 249.97 295.329C249.074 295.841 248.359 296.588 247.826 297.569C247.292 298.551 247.026 299.703 247.026 301.025C247.026 302.369 247.292 303.543 247.826 304.545C248.359 305.527 249.074 306.284 249.97 306.817C250.866 307.329 251.858 307.585 252.946 307.585C254.034 307.585 255.026 307.329 255.922 306.817C256.839 306.284 257.564 305.527 258.098 304.545C258.631 303.543 258.898 302.38 258.898 301.057ZM272.286 301.025C272.286 299.233 272.649 297.665 273.374 296.321C274.099 294.956 275.091 293.9 276.35 293.153C277.63 292.407 279.049 292.033 280.606 292.033C282.142 292.033 283.475 292.364 284.606 293.025C285.737 293.687 286.579 294.519 287.134 295.521V292.321H290.078V309.857H287.134V306.593C286.558 307.617 285.694 308.471 284.542 309.153C283.411 309.815 282.089 310.145 280.574 310.145C279.017 310.145 277.609 309.761 276.35 308.993C275.091 308.225 274.099 307.148 273.374 305.761C272.649 304.375 272.286 302.796 272.286 301.025ZM287.134 301.057C287.134 299.735 286.867 298.583 286.334 297.601C285.801 296.62 285.075 295.873 284.158 295.361C283.262 294.828 282.27 294.561 281.182 294.561C280.094 294.561 279.102 294.817 278.206 295.329C277.31 295.841 276.595 296.588 276.062 297.569C275.529 298.551 275.262 299.703 275.262 301.025C275.262 302.369 275.529 303.543 276.062 304.545C276.595 305.527 277.31 306.284 278.206 306.817C279.102 307.329 280.094 307.585 281.182 307.585C282.27 307.585 283.262 307.329 284.158 306.817C285.075 306.284 285.801 305.527 286.334 304.545C286.867 303.543 287.134 302.38 287.134 301.057Z" fill="#888080"/>
<rect x="408.5" y="221.857" width="188" height="46" rx="8" fill="#FF6D64"/>
<path d="M434.41 233.617C436.778 233.617 438.848 234.076 440.618 234.993C442.41 235.889 443.786 237.191 444.746 238.897C445.728 240.583 446.218 242.556 446.218 244.817C446.218 247.079 445.728 249.041 444.746 250.705C443.786 252.369 442.41 253.649 440.618 254.545C438.848 255.42 436.778 255.857 434.41 255.857H427.146V233.617H434.41ZM434.41 252.881C437.013 252.881 439.008 252.177 440.394 250.769C441.781 249.361 442.474 247.377 442.474 244.817C442.474 242.236 441.781 240.22 440.394 238.769C439.008 237.319 437.013 236.593 434.41 236.593H430.794V252.881H434.41ZM465.034 246.609C465.034 247.271 464.991 247.868 464.906 248.401H451.434C451.54 249.809 452.063 250.94 453.002 251.793C453.94 252.647 455.092 253.073 456.458 253.073C458.42 253.073 459.807 252.252 460.618 250.609H464.554C464.02 252.231 463.05 253.564 461.642 254.609C460.255 255.633 458.527 256.145 456.458 256.145C454.772 256.145 453.258 255.772 451.914 255.025C450.591 254.257 449.546 253.191 448.778 251.825C448.031 250.439 447.658 248.839 447.658 247.025C447.658 245.212 448.02 243.623 448.746 242.257C449.492 240.871 450.527 239.804 451.85 239.057C453.194 238.311 454.73 237.937 456.458 237.937C458.122 237.937 459.604 238.3 460.906 239.025C462.207 239.751 463.22 240.775 463.946 242.097C464.671 243.399 465.034 244.903 465.034 246.609ZM461.226 245.457C461.204 244.113 460.724 243.036 459.786 242.225C458.847 241.415 457.684 241.009 456.298 241.009C455.039 241.009 453.962 241.415 453.066 242.225C452.17 243.015 451.636 244.092 451.466 245.457H461.226ZM474.48 252.593L479.472 238.225H483.344L476.624 255.857H472.272L465.584 238.225H469.488L474.48 252.593ZM501.301 246.609C501.301 247.271 501.259 247.868 501.173 248.401H487.701C487.808 249.809 488.331 250.94 489.269 251.793C490.208 252.647 491.36 253.073 492.725 253.073C494.688 253.073 496.075 252.252 496.885 250.609H500.821C500.288 252.231 499.317 253.564 497.909 254.609C496.523 255.633 494.795 256.145 492.725 256.145C491.04 256.145 489.525 255.772 488.181 255.025C486.859 254.257 485.813 253.191 485.045 251.825C484.299 250.439 483.925 248.839 483.925 247.025C483.925 245.212 484.288 243.623 485.013 242.257C485.76 240.871 486.795 239.804 488.117 239.057C489.461 238.311 490.997 237.937 492.725 237.937C494.389 237.937 495.872 238.3 497.173 239.025C498.475 239.751 499.488 240.775 500.213 242.097C500.939 243.399 501.301 244.903 501.301 246.609ZM497.493 245.457C497.472 244.113 496.992 243.036 496.053 242.225C495.115 241.415 493.952 241.009 492.565 241.009C491.307 241.009 490.229 241.415 489.333 242.225C488.437 243.015 487.904 244.092 487.733 245.457H497.493ZM507.579 232.177V255.857H503.931V232.177H507.579ZM519.057 256.145C517.393 256.145 515.889 255.772 514.545 255.025C513.201 254.257 512.145 253.191 511.377 251.825C510.609 250.439 510.225 248.839 510.225 247.025C510.225 245.233 510.619 243.644 511.409 242.257C512.198 240.871 513.275 239.804 514.641 239.057C516.006 238.311 517.531 237.937 519.217 237.937C520.902 237.937 522.427 238.311 523.793 239.057C525.158 239.804 526.235 240.871 527.025 242.257C527.814 243.644 528.209 245.233 528.209 247.025C528.209 248.817 527.803 250.407 526.993 251.793C526.182 253.18 525.073 254.257 523.665 255.025C522.278 255.772 520.742 256.145 519.057 256.145ZM519.057 252.977C519.995 252.977 520.87 252.753 521.681 252.305C522.513 251.857 523.185 251.185 523.697 250.289C524.209 249.393 524.465 248.305 524.465 247.025C524.465 245.745 524.219 244.668 523.729 243.793C523.238 242.897 522.587 242.225 521.777 241.777C520.966 241.329 520.091 241.105 519.153 241.105C518.214 241.105 517.339 241.329 516.529 241.777C515.739 242.225 515.11 242.897 514.641 243.793C514.171 244.668 513.937 245.745 513.937 247.025C513.937 248.924 514.417 250.396 515.377 251.441C516.358 252.465 517.585 252.977 519.057 252.977ZM534.503 240.817C535.122 240.007 535.964 239.324 537.031 238.769C538.098 238.215 539.303 237.937 540.647 237.937C542.183 237.937 543.58 238.321 544.839 239.089C546.119 239.836 547.122 240.892 547.847 242.257C548.572 243.623 548.935 245.191 548.935 246.961C548.935 248.732 548.572 250.321 547.847 251.729C547.122 253.116 546.119 254.204 544.839 254.993C543.58 255.761 542.183 256.145 540.647 256.145C539.303 256.145 538.108 255.879 537.063 255.345C536.018 254.791 535.164 254.108 534.503 253.297V264.241H530.855V238.225H534.503V240.817ZM545.223 246.961C545.223 245.745 544.967 244.7 544.455 243.825C543.964 242.929 543.303 242.257 542.471 241.809C541.66 241.34 540.786 241.105 539.847 241.105C538.93 241.105 538.055 241.34 537.223 241.809C536.412 242.279 535.751 242.961 535.239 243.857C534.748 244.753 534.503 245.809 534.503 247.025C534.503 248.241 534.748 249.308 535.239 250.225C535.751 251.121 536.412 251.804 537.223 252.273C538.055 252.743 538.93 252.977 539.847 252.977C540.786 252.977 541.66 252.743 542.471 252.273C543.303 251.783 543.964 251.079 544.455 250.161C544.967 249.244 545.223 248.177 545.223 246.961ZM567.742 246.609C567.742 247.271 567.7 247.868 567.614 248.401H554.142C554.249 249.809 554.772 250.94 555.71 251.793C556.649 252.647 557.801 253.073 559.166 253.073C561.129 253.073 562.516 252.252 563.326 250.609H567.262C566.729 252.231 565.758 253.564 564.35 254.609C562.964 255.633 561.236 256.145 559.166 256.145C557.481 256.145 555.966 255.772 554.622 255.025C553.3 254.257 552.254 253.191 551.486 251.825C550.74 250.439 550.366 248.839 550.366 247.025C550.366 245.212 550.729 243.623 551.454 242.257C552.201 240.871 553.236 239.804 554.558 239.057C555.902 238.311 557.438 237.937 559.166 237.937C560.83 237.937 562.313 238.3 563.614 239.025C564.916 239.751 565.929 240.775 566.654 242.097C567.38 243.399 567.742 244.903 567.742 246.609ZM563.934 245.457C563.913 244.113 563.433 243.036 562.494 242.225C561.556 241.415 560.393 241.009 559.006 241.009C557.748 241.009 556.67 241.415 555.774 242.225C554.878 243.015 554.345 244.092 554.174 245.457H563.934ZM574.021 240.785C574.554 239.889 575.258 239.196 576.133 238.705C577.029 238.193 578.085 237.937 579.301 237.937V241.713H578.373C576.943 241.713 575.855 242.076 575.109 242.801C574.383 243.527 574.021 244.785 574.021 246.577V255.857H570.373V238.225H574.021V240.785Z" fill="#1C1919"/>
<rect x="299.5" y="275.857" width="298" height="46" rx="8" fill="#FF6D64"/>
<path d="M334.399 294.017C333.823 292.908 333.023 292.076 331.999 291.521C330.975 290.945 329.791 290.657 328.447 290.657C326.975 290.657 325.663 290.988 324.511 291.649C323.359 292.311 322.452 293.249 321.791 294.465C321.151 295.681 320.831 297.089 320.831 298.689C320.831 300.289 321.151 301.708 321.791 302.945C322.452 304.161 323.359 305.1 324.511 305.761C325.663 306.423 326.975 306.753 328.447 306.753C330.431 306.753 332.042 306.199 333.279 305.089C334.516 303.98 335.274 302.476 335.551 300.577H327.199V297.665H339.455V300.513C339.22 302.241 338.602 303.831 337.599 305.281C336.618 306.732 335.327 307.895 333.727 308.769C332.148 309.623 330.388 310.049 328.447 310.049C326.356 310.049 324.447 309.569 322.719 308.609C320.991 307.628 319.615 306.273 318.591 304.545C317.588 302.817 317.087 300.865 317.087 298.689C317.087 296.513 317.588 294.561 318.591 292.833C319.615 291.105 320.991 289.761 322.719 288.801C324.468 287.82 326.378 287.329 328.447 287.329C330.815 287.329 332.916 287.916 334.751 289.089C336.607 290.241 337.951 291.884 338.783 294.017H334.399ZM345.741 294.785C346.274 293.889 346.978 293.196 347.853 292.705C348.749 292.193 349.805 291.937 351.021 291.937V295.713H350.093C348.664 295.713 347.576 296.076 346.829 296.801C346.104 297.527 345.741 298.785 345.741 300.577V309.857H342.093V292.225H345.741V294.785ZM352.198 300.961C352.198 299.191 352.561 297.623 353.286 296.257C354.033 294.892 355.036 293.836 356.294 293.089C357.574 292.321 358.982 291.937 360.518 291.937C361.905 291.937 363.11 292.215 364.134 292.769C365.18 293.303 366.012 293.975 366.63 294.785V292.225H370.31V309.857H366.63V307.233C366.012 308.065 365.169 308.759 364.102 309.313C363.036 309.868 361.82 310.145 360.454 310.145C358.94 310.145 357.553 309.761 356.294 308.993C355.036 308.204 354.033 307.116 353.286 305.729C352.561 304.321 352.198 302.732 352.198 300.961ZM366.63 301.025C366.63 299.809 366.374 298.753 365.862 297.857C365.372 296.961 364.721 296.279 363.91 295.809C363.1 295.34 362.225 295.105 361.286 295.105C360.348 295.105 359.473 295.34 358.662 295.809C357.852 296.257 357.19 296.929 356.678 297.825C356.188 298.7 355.942 299.745 355.942 300.961C355.942 302.177 356.188 303.244 356.678 304.161C357.19 305.079 357.852 305.783 358.662 306.273C359.494 306.743 360.369 306.977 361.286 306.977C362.225 306.977 363.1 306.743 363.91 306.273C364.721 305.804 365.372 305.121 365.862 304.225C366.374 303.308 366.63 302.241 366.63 301.025ZM377.79 294.817C378.409 294.007 379.251 293.324 380.318 292.769C381.385 292.215 382.59 291.937 383.934 291.937C385.47 291.937 386.867 292.321 388.126 293.089C389.406 293.836 390.409 294.892 391.134 296.257C391.859 297.623 392.222 299.191 392.222 300.961C392.222 302.732 391.859 304.321 391.134 305.729C390.409 307.116 389.406 308.204 388.126 308.993C386.867 309.761 385.47 310.145 383.934 310.145C382.59 310.145 381.395 309.879 380.35 309.345C379.305 308.791 378.451 308.108 377.79 307.297V318.241H374.142V292.225H377.79V294.817ZM388.51 300.961C388.51 299.745 388.254 298.7 387.742 297.825C387.251 296.929 386.59 296.257 385.758 295.809C384.947 295.34 384.073 295.105 383.134 295.105C382.217 295.105 381.342 295.34 380.51 295.809C379.699 296.279 379.038 296.961 378.526 297.857C378.035 298.753 377.79 299.809 377.79 301.025C377.79 302.241 378.035 303.308 378.526 304.225C379.038 305.121 379.699 305.804 380.51 306.273C381.342 306.743 382.217 306.977 383.134 306.977C384.073 306.977 384.947 306.743 385.758 306.273C386.59 305.783 387.251 305.079 387.742 304.161C388.254 303.244 388.51 302.177 388.51 300.961ZM403.989 291.937C405.333 291.937 406.528 292.225 407.573 292.801C408.64 293.377 409.472 294.231 410.069 295.361C410.688 296.492 410.997 297.857 410.997 299.457V309.857H407.381V300.001C407.381 298.423 406.987 297.217 406.197 296.385C405.408 295.532 404.331 295.105 402.965 295.105C401.6 295.105 400.512 295.532 399.701 296.385C398.912 297.217 398.517 298.423 398.517 300.001V309.857H394.869V286.177H398.517V294.273C399.136 293.527 399.915 292.951 400.853 292.545C401.813 292.14 402.859 291.937 403.989 291.937ZM416.547 289.889C415.885 289.889 415.331 289.665 414.883 289.217C414.435 288.769 414.211 288.215 414.211 287.553C414.211 286.892 414.435 286.337 414.883 285.889C415.331 285.441 415.885 285.217 416.547 285.217C417.187 285.217 417.731 285.441 418.179 285.889C418.627 286.337 418.851 286.892 418.851 287.553C418.851 288.215 418.627 288.769 418.179 289.217C417.731 289.665 417.187 289.889 416.547 289.889ZM418.339 292.225V309.857H414.691V292.225H418.339ZM420.952 301.025C420.952 299.212 421.315 297.623 422.04 296.257C422.787 294.871 423.811 293.804 425.112 293.057C426.413 292.311 427.907 291.937 429.592 291.937C431.725 291.937 433.485 292.449 434.872 293.473C436.28 294.476 437.229 295.916 437.72 297.793H433.784C433.464 296.919 432.952 296.236 432.248 295.745C431.544 295.255 430.659 295.009 429.592 295.009C428.099 295.009 426.904 295.543 426.008 296.609C425.133 297.655 424.696 299.127 424.696 301.025C424.696 302.924 425.133 304.407 426.008 305.473C426.904 306.54 428.099 307.073 429.592 307.073C431.704 307.073 433.101 306.145 433.784 304.289H437.72C437.208 306.081 436.248 307.511 434.84 308.577C433.432 309.623 431.683 310.145 429.592 310.145C427.907 310.145 426.413 309.772 425.112 309.025C423.811 308.257 422.787 307.191 422.04 305.825C421.315 304.439 420.952 302.839 420.952 301.025ZM455.012 287.617C457.38 287.617 459.449 288.076 461.22 288.993C463.012 289.889 464.388 291.191 465.348 292.897C466.329 294.583 466.82 296.556 466.82 298.817C466.82 301.079 466.329 303.041 465.348 304.705C464.388 306.369 463.012 307.649 461.22 308.545C459.449 309.42 457.38 309.857 455.012 309.857H447.748V287.617H455.012ZM455.012 306.881C457.615 306.881 459.609 306.177 460.996 304.769C462.383 303.361 463.076 301.377 463.076 298.817C463.076 296.236 462.383 294.22 460.996 292.769C459.609 291.319 457.615 290.593 455.012 290.593H451.396V306.881H455.012ZM485.636 300.609C485.636 301.271 485.593 301.868 485.508 302.401H472.036C472.142 303.809 472.665 304.94 473.604 305.793C474.542 306.647 475.694 307.073 477.06 307.073C479.022 307.073 480.409 306.252 481.22 304.609H485.156C484.622 306.231 483.652 307.564 482.244 308.609C480.857 309.633 479.129 310.145 477.06 310.145C475.374 310.145 473.86 309.772 472.516 309.025C471.193 308.257 470.148 307.191 469.38 305.825C468.633 304.439 468.26 302.839 468.26 301.025C468.26 299.212 468.622 297.623 469.348 296.257C470.094 294.871 471.129 293.804 472.452 293.057C473.796 292.311 475.332 291.937 477.06 291.937C478.724 291.937 480.206 292.3 481.508 293.025C482.809 293.751 483.822 294.775 484.548 296.097C485.273 297.399 485.636 298.903 485.636 300.609ZM481.828 299.457C481.806 298.113 481.326 297.036 480.388 296.225C479.449 295.415 478.286 295.009 476.9 295.009C475.641 295.009 474.564 295.415 473.668 296.225C472.772 297.015 472.238 298.092 472.068 299.457H481.828ZM494.666 310.145C493.279 310.145 492.031 309.9 490.922 309.409C489.834 308.897 488.97 308.215 488.33 307.361C487.69 306.487 487.348 305.516 487.306 304.449H491.082C491.146 305.196 491.498 305.825 492.138 306.337C492.799 306.828 493.62 307.073 494.602 307.073C495.626 307.073 496.415 306.881 496.97 306.497C497.546 306.092 497.834 305.58 497.834 304.961C497.834 304.3 497.514 303.809 496.874 303.489C496.255 303.169 495.263 302.817 493.898 302.433C492.575 302.071 491.498 301.719 490.666 301.377C489.834 301.036 489.108 300.513 488.49 299.809C487.892 299.105 487.594 298.177 487.594 297.025C487.594 296.087 487.871 295.233 488.426 294.465C488.98 293.676 489.77 293.057 490.794 292.609C491.839 292.161 493.034 291.937 494.378 291.937C496.383 291.937 497.994 292.449 499.21 293.473C500.447 294.476 501.108 295.852 501.194 297.601H497.546C497.482 296.812 497.162 296.183 496.586 295.713C496.01 295.244 495.231 295.009 494.25 295.009C493.29 295.009 492.554 295.191 492.042 295.553C491.53 295.916 491.274 296.396 491.274 296.993C491.274 297.463 491.444 297.857 491.786 298.177C492.127 298.497 492.543 298.753 493.034 298.945C493.524 299.116 494.25 299.34 495.21 299.617C496.49 299.959 497.535 300.311 498.346 300.673C499.178 301.015 499.892 301.527 500.49 302.209C501.087 302.892 501.396 303.799 501.418 304.929C501.418 305.932 501.14 306.828 500.586 307.617C500.031 308.407 499.242 309.025 498.218 309.473C497.215 309.921 496.031 310.145 494.666 310.145ZM506.255 289.889C505.594 289.889 505.039 289.665 504.591 289.217C504.143 288.769 503.919 288.215 503.919 287.553C503.919 286.892 504.143 286.337 504.591 285.889C505.039 285.441 505.594 285.217 506.255 285.217C506.895 285.217 507.439 285.441 507.887 285.889C508.335 286.337 508.559 286.892 508.559 287.553C508.559 288.215 508.335 288.769 507.887 289.217C507.439 289.665 506.895 289.889 506.255 289.889ZM508.047 292.225V309.857H504.399V292.225H508.047ZM518.981 291.937C520.346 291.937 521.552 292.215 522.597 292.769C523.664 293.303 524.496 293.975 525.093 294.785V292.225H528.773V310.145C528.773 311.767 528.432 313.207 527.749 314.465C527.066 315.745 526.074 316.748 524.773 317.473C523.493 318.199 521.957 318.561 520.165 318.561C517.776 318.561 515.792 317.996 514.213 316.865C512.634 315.756 511.738 314.241 511.525 312.321H515.141C515.418 313.239 516.005 313.975 516.901 314.529C517.818 315.105 518.906 315.393 520.165 315.393C521.637 315.393 522.821 314.945 523.717 314.049C524.634 313.153 525.093 311.852 525.093 310.145V307.201C524.474 308.033 523.632 308.737 522.565 309.313C521.52 309.868 520.325 310.145 518.981 310.145C517.445 310.145 516.037 309.761 514.757 308.993C513.498 308.204 512.496 307.116 511.749 305.729C511.024 304.321 510.661 302.732 510.661 300.961C510.661 299.191 511.024 297.623 511.749 296.257C512.496 294.892 513.498 293.836 514.757 293.089C516.037 292.321 517.445 291.937 518.981 291.937ZM525.093 301.025C525.093 299.809 524.837 298.753 524.325 297.857C523.834 296.961 523.184 296.279 522.373 295.809C521.562 295.34 520.688 295.105 519.749 295.105C518.81 295.105 517.936 295.34 517.125 295.809C516.314 296.257 515.653 296.929 515.141 297.825C514.65 298.7 514.405 299.745 514.405 300.961C514.405 302.177 514.65 303.244 515.141 304.161C515.653 305.079 516.314 305.783 517.125 306.273C517.957 306.743 518.832 306.977 519.749 306.977C520.688 306.977 521.562 306.743 522.373 306.273C523.184 305.804 523.834 305.121 524.325 304.225C524.837 303.308 525.093 302.241 525.093 301.025ZM541.5 291.937C542.887 291.937 544.124 292.225 545.212 292.801C546.322 293.377 547.186 294.231 547.804 295.361C548.423 296.492 548.732 297.857 548.732 299.457V309.857H545.116V300.001C545.116 298.423 544.722 297.217 543.932 296.385C543.143 295.532 542.066 295.105 540.7 295.105C539.335 295.105 538.247 295.532 537.436 296.385C536.647 297.217 536.252 298.423 536.252 300.001V309.857H532.604V292.225H536.252V294.241C536.85 293.516 537.607 292.951 538.524 292.545C539.463 292.14 540.455 291.937 541.5 291.937ZM568.586 300.609C568.586 301.271 568.543 301.868 568.458 302.401H554.986C555.092 303.809 555.615 304.94 556.554 305.793C557.492 306.647 558.644 307.073 560.01 307.073C561.972 307.073 563.359 306.252 564.17 304.609H568.106C567.572 306.231 566.602 307.564 565.194 308.609C563.807 309.633 562.079 310.145 560.01 310.145C558.324 310.145 556.81 309.772 555.466 309.025C554.143 308.257 553.098 307.191 552.33 305.825C551.583 304.439 551.21 302.839 551.21 301.025C551.21 299.212 551.572 297.623 552.298 296.257C553.044 294.871 554.079 293.804 555.402 293.057C556.746 292.311 558.282 291.937 560.01 291.937C561.674 291.937 563.156 292.3 564.458 293.025C565.759 293.751 566.772 294.775 567.498 296.097C568.223 297.399 568.586 298.903 568.586 300.609ZM564.778 299.457C564.756 298.113 564.276 297.036 563.338 296.225C562.399 295.415 561.236 295.009 559.85 295.009C558.591 295.009 557.514 295.415 556.618 296.225C555.722 297.015 555.188 298.092 555.018 299.457H564.778ZM574.864 294.785C575.397 293.889 576.101 293.196 576.976 292.705C577.872 292.193 578.928 291.937 580.144 291.937V295.713H579.216C577.786 295.713 576.698 296.076 575.952 296.801C575.226 297.527 574.864 298.785 574.864 300.577V309.857H571.216V292.225H574.864V294.785Z" fill="#1C1919"/>
<path d="M700 112C703.314 112 706 109.314 706 106C706 102.686 703.314 100 700 100C693.373 100 688 94.6274 688 88C688 84.6863 685.314 82 682 82C678.686 82 676 84.6863 676 88C676 94.6274 670.627 100 664 100C660.686 100 658 102.686 658 106C658 109.314 660.686 112 664 112C670.627 112 676 117.373 676 124C676 127.314 678.686 130 682 130C685.314 130 688 127.314 688 124C688 117.373 693.373 112 700 112Z" fill="#FF6D64"/>
<path d="M130 284C133.314 284 136 281.314 136 278C136 274.686 133.314 272 130 272C123.373 272 118 266.627 118 260C118 256.686 115.314 254 112 254C108.686 254 106 256.686 106 260C106 266.627 100.627 272 94 272C90.6863 272 88 274.686 88 278C88 281.314 90.6863 284 94 284C100.627 284 106 289.373 106 296C106 299.314 108.686 302 112 302C115.314 302 118 299.314 118 296C118 289.373 123.373 284 130 284Z" fill="#FF6D64"/>
<path d="M758 205C761.314 205 764 202.314 764 199C764 195.686 761.314 193 758 193C751.373 193 746 187.627 746 181C746 177.686 743.314 175 740 175C736.686 175 734 177.686 734 181C734 187.627 728.627 193 722 193C718.686 193 716 195.686 716 199C716 202.314 718.686 205 722 205C728.627 205 734 210.373 734 217C734 220.314 736.686 223 740 223C743.314 223 746 220.314 746 217C746 210.373 751.373 205 758 205Z" fill="#332F2F"/>
<path d="M717 290C720.314 290 723 287.314 723 284C723 280.686 720.314 278 717 278C710.373 278 705 272.627 705 266C705 262.686 702.314 260 699 260C695.686 260 693 262.686 693 266C693 272.627 687.627 278 681 278C677.686 278 675 280.686 675 284C675 287.314 677.686 290 681 290C687.627 290 693 295.373 693 302C693 305.314 695.686 308 699 308C702.314 308 705 305.314 705 302C705 295.373 710.373 290 717 290Z" fill="#332F2F"/>
<path d="M146 100C149.314 100 152 97.3137 152 94C152 90.6863 149.314 88 146 88C139.373 88 134 82.6274 134 76C134 72.6863 131.314 70 128 70C124.686 70 122 72.6863 122 76C122 82.6274 116.627 88 110 88C106.686 88 104 90.6863 104 94C104 97.3137 106.686 100 110 100C116.627 100 122 105.373 122 112C122 115.314 124.686 118 128 118C131.314 118 134 115.314 134 112C134 105.373 139.373 100 146 100Z" fill="#332F2F"/>
<path d="M87 177C90.3137 177 93 174.314 93 171C93 167.686 90.3137 165 87 165C80.3726 165 75 159.627 75 153C75 149.686 72.3137 147 69 147C65.6863 147 63 149.686 63 153C63 159.627 57.6274 165 51 165C47.6863 165 45 167.686 45 171C45 174.314 47.6863 177 51 177C57.6274 177 63 182.373 63 189C63 192.314 65.6863 195 69 195C72.3137 195 75 192.314 75 189C75 182.373 80.3726 177 87 177Z" fill="#332F2F"/>
</svg>
